<?xml version="1.0" encoding="utf-8"?>
<!-- Generator: Adobe Illustrator 27.5.0, SVG Export Plug-In . SVG Version: 6.00 Build 0)  -->
<svg version="1.1" xmlns="http://www.w3.org/2000/svg" xmlns:xlink="http://www.w3.org/1999/xlink" x="0px" y="0px"
	 viewBox="0 0 500 500" style="enable-background:new 0 0 500 500;" xml:space="preserve">
<g id="BACKGROUND">
	<rect style="fill:#FFFFFF;" width="500" height="500"/>
</g>
<g id="OBJECTS">
	<g>
		<g>
			<g>
				
					<path style="fill:#FFFFFF;stroke:#231F20;stroke-width:2;stroke-linecap:round;stroke-linejoin:round;stroke-miterlimit:10;" d="
					M83.647,103.257c-4.816-7.462-12.714-12.397-20.839-15.984c-8.125-3.587-16.72-6.076-24.681-10.012
					c-7.962-3.936-15.482-9.622-19.29-17.646c-4.468-9.414-2.872-21.39,3.906-29.306c5.961-6.962,16.736-6.287,25.47-3.507
					c14.715,4.685,26.115,17.219,31.855,31.556C85.808,72.695,85.597,87.938,83.647,103.257z"/>
				<g>
					<path style="fill:none;stroke:#231F20;stroke-width:2;stroke-linecap:round;stroke-linejoin:round;stroke-miterlimit:10;" d="
						M20.15,33.953c30.06,8.901,50.053,33.875,63.497,69.304"/>
					
						<line style="fill:#FFFFFF;stroke:#231F20;stroke-linecap:round;stroke-linejoin:round;stroke-miterlimit:10;" x1="42.122" y1="44.409" x2="17.943" y2="57.47"/>
					
						<line style="fill:#FFFFFF;stroke:#231F20;stroke-linecap:round;stroke-linejoin:round;stroke-miterlimit:10;" x1="59.105" y1="59.787" x2="32.082" y2="73.836"/>
					
						<line style="fill:#FFFFFF;stroke:#231F20;stroke-linecap:round;stroke-linejoin:round;stroke-miterlimit:10;" x1="53.298" y1="53.592" x2="61.828" y2="33.953"/>
					
						<line style="fill:#FFFFFF;stroke:#231F20;stroke-linecap:round;stroke-linejoin:round;stroke-miterlimit:10;" x1="69.366" y1="73.836" x2="77.912" y2="53.592"/>
				</g>
			</g>
			<g>
				
					<path style="fill:#FFFFFF;stroke:#231F20;stroke-width:2;stroke-linecap:round;stroke-linejoin:round;stroke-miterlimit:10;" d="
					M80.368,122.1c-7.875-9.221-20.405-14.247-32.47-13.024s-23.331,8.66-29.196,19.274c-4.02,7.275-5.535,15.761-5.238,24.068
					c0.309,8.637,2.769,17.617,8.935,23.673s16.641,8.172,23.645,3.108c4.244-3.069,6.316-6.803,7.4-11.928
					c1.083-5.125,0.615-10.43,0.325-15.66c-0.29-5.23-0.373-10.615,1.418-15.538c1.813-4.981,5.559-9.229,10.274-11.651
					C70.175,122,75.264,120.673,80.368,122.1z"/>
				<g>
					<path style="fill:none;stroke:#231F20;stroke-width:2;stroke-linecap:round;stroke-linejoin:round;stroke-miterlimit:10;" d="
						M35.749,182.005c-22.32-38.83,8.922-83.085,44.619-59.905"/>
					
						<line style="fill:none;stroke:#231F20;stroke-linecap:round;stroke-linejoin:round;stroke-miterlimit:10;" x1="42.122" y1="122.557" x2="53.298" y2="144.266"/>
					
						<line style="fill:none;stroke:#231F20;stroke-linecap:round;stroke-linejoin:round;stroke-miterlimit:10;" x1="28.313" y1="152.438" x2="51.001" y2="173.88"/>
					
						<line style="fill:none;stroke:#231F20;stroke-linecap:round;stroke-linejoin:round;stroke-miterlimit:10;" x1="33.424" y1="133.411" x2="15.138" y2="137.203"/>
					
						<line style="fill:none;stroke:#231F20;stroke-linecap:round;stroke-linejoin:round;stroke-miterlimit:10;" x1="28.563" y1="160.459" x2="22.4" y2="176.09"/>
				</g>
			</g>
			<g>
				
					<path style="fill:#FFFFFF;stroke:#231F20;stroke-width:2;stroke-linecap:round;stroke-linejoin:round;stroke-miterlimit:10;" d="
					M114.451,127.431c-11.201-13.739-17.706-31.237-18.2-48.957c-0.276-9.894,1.407-20.165,6.917-28.388
					s15.398-13.957,25.198-12.564c8.279,1.177,14.598,10.136,15.159,18.48s-3.004,16.436-7.468,23.507
					c-4.464,7.071-9.903,13.535-13.785,20.941C117.729,109.114,114.189,117.652,114.451,127.431z"/>
				<g>
					<path style="fill:none;stroke:#231F20;stroke-width:2;stroke-linecap:round;stroke-linejoin:round;stroke-miterlimit:10;" d="
						M129.433,37.724c-19.699,22.574-25.132,56.365-14.983,89.706"/>
					
						<line style="fill:none;stroke:#231F20;stroke-linecap:round;stroke-linejoin:round;stroke-miterlimit:10;" x1="109.462" y1="92.962" x2="96.473" y2="82.578"/>
					
						<line style="fill:none;stroke:#231F20;stroke-linecap:round;stroke-linejoin:round;stroke-miterlimit:10;" x1="113.226" y1="67.694" x2="103.167" y2="50.086"/>
					
						<line style="fill:none;stroke:#231F20;stroke-linecap:round;stroke-linejoin:round;stroke-miterlimit:10;" x1="109.809" y1="86.093" x2="138.768" y2="74.826"/>
					
						<line style="fill:none;stroke:#231F20;stroke-linecap:round;stroke-linejoin:round;stroke-miterlimit:10;" x1="116.346" y1="58.89" x2="142.504" y2="50.94"/>
				</g>
			</g>
		</g>
		<g>
			<path style="fill:#FFFFFF;stroke:#231F20;stroke-width:2;stroke-linecap:round;stroke-linejoin:round;stroke-miterlimit:10;" d="
				M450.32,195.013c-3.749-8.731-7.574-17.88-6.926-27.359c0.454-6.638,3.186-13.099,7.633-18.048s10.579-8.356,17.13-9.516
				c7.058,3.915,10.686,12.241,10.495,20.31c-0.191,8.069-4.084,15.744-9.56,21.673C463.617,188.002,457.52,191.366,450.32,195.013z
				"/>
			<path style="fill:none;stroke:#231F20;stroke-width:2;stroke-linecap:round;stroke-linejoin:round;stroke-miterlimit:10;" d="
				M466.168,145.707c-8.864,18.164-14.419,37.936-16.313,58.058"/>
			<path style="fill:none;stroke:#231F20;stroke-width:2;stroke-linecap:round;stroke-linejoin:round;stroke-miterlimit:10;" d="
				M450.699,153.873c1.278,4.573,3.889,10.811,6.25,14.931"/>
			<path style="fill:none;stroke:#231F20;stroke-width:2;stroke-linecap:round;stroke-linejoin:round;stroke-miterlimit:10;" d="
				M446.574,163.557c0.956,5.76,3.751,13.322,6.623,18.405"/>
			<path style="fill:none;stroke:#231F20;stroke-width:2;stroke-linecap:round;stroke-linejoin:round;stroke-miterlimit:10;" d="
				M473.56,158.538c-4.597,1.526-11.41,4.632-15.577,7.102"/>
			<path style="fill:none;stroke:#231F20;stroke-width:2;stroke-linecap:round;stroke-linejoin:round;stroke-miterlimit:10;" d="
				M473.01,171.135c-6.58,2.154-14.447,6.453-19.813,10.827"/>
		</g>
		<g>
			<path style="fill:#FFFFFF;stroke:#231F20;stroke-width:2;stroke-linecap:round;stroke-linejoin:round;stroke-miterlimit:10;" d="
				M475.696,357.716c3.074-7.159,6.21-14.66,5.679-22.433c-0.372-5.443-2.613-10.74-6.259-14.798
				c-3.646-4.058-8.674-6.851-14.046-7.802c-5.787,3.21-8.762,10.037-8.605,16.653c0.156,6.616,3.349,12.909,7.839,17.77
				C464.793,351.967,469.793,354.725,475.696,357.716z"/>
			<path style="fill:none;stroke:#231F20;stroke-width:2;stroke-linecap:round;stroke-linejoin:round;stroke-miterlimit:10;" d="
				M462.702,317.289c7.268,14.893,11.823,31.105,13.376,47.604"/>
			<path style="fill:none;stroke:#231F20;stroke-width:2;stroke-linecap:round;stroke-linejoin:round;stroke-miterlimit:10;" d="
				M475.386,323.984c-1.048,3.75-3.189,8.864-5.125,12.242"/>
			<path style="fill:none;stroke:#231F20;stroke-width:2;stroke-linecap:round;stroke-linejoin:round;stroke-miterlimit:10;" d="
				M478.767,331.925c-0.784,4.722-3.075,10.923-5.43,15.091"/>
			<path style="fill:none;stroke:#231F20;stroke-width:2;stroke-linecap:round;stroke-linejoin:round;stroke-miterlimit:10;" d="
				M456.641,327.809c3.769,1.251,9.355,3.798,12.772,5.823"/>
			<path style="fill:none;stroke:#231F20;stroke-width:2;stroke-linecap:round;stroke-linejoin:round;stroke-miterlimit:10;" d="
				M457.092,338.138c5.395,1.766,11.845,5.291,16.245,8.877"/>
		</g>
		<g>
			<g>
				
					<path style="fill:#FFFFFF;stroke:#231F20;stroke-width:2;stroke-linecap:round;stroke-linejoin:round;stroke-miterlimit:10;" d="
					M463.756,40.56c2.608,2.041,3.281,6.159,1.459,8.924c-1.823,2.765-5.872,3.77-8.777,2.178c-2.904-1.592-4.27-5.565-2.919-8.589
					c-2.075,1.271-4.743,1.582-7.008,0.693c-2.265-0.889-4.04-3-4.395-5.407c-0.355-2.407,0.794-5.003,2.882-6.252
					c1.379-0.825,3.062-1.051,4.656-0.844c1.594,0.207,3.11,0.823,4.525,1.583c-1.884-1.972-2.709-5.131-1.699-7.664
					c1.009-2.533,3.576-4.368,6.299-4.503c2.723-0.136,5.459,1.435,6.715,3.855c1.256,2.42,0.966,5.561-0.713,7.71
					c1.791-1.283,3.875-1.895,6.077-1.959c2.202-0.064,4.461,0.711,6.004,2.284c1.542,1.573,2.274,3.966,1.662,6.083
					c-0.8,2.77-3.707,4.556-6.584,4.757C469.063,43.609,466.259,41.993,463.756,40.56z"/>
				
					<path style="fill:#FFFFFF;stroke:#231F20;stroke-width:2;stroke-linecap:round;stroke-linejoin:round;stroke-miterlimit:10;" d="
					M454.274,37.635c0.086,1.777,1.328,3.444,3.007,4.033c1.679,0.589,3.69,0.066,4.868-1.268c1.178-1.333,1.449-3.394,0.658-4.987
					C460.56,30.893,454.031,32.588,454.274,37.635z"/>
			</g>
			<g>
				
					<path style="fill:#FFFFFF;stroke:#231F20;stroke-width:2;stroke-linecap:round;stroke-linejoin:round;stroke-miterlimit:10;" d="
					M470.95,64.655c1.476,2.965,0.311,6.972-2.525,8.683c-2.836,1.711-6.923,0.875-8.859-1.812
					c-1.936-2.688-1.459-6.861,1.063-9.009c-2.42,0.254-4.962-0.614-6.624-2.391c-1.662-1.777-2.355-4.447-1.639-6.772
					c0.716-2.325,2.87-4.174,5.292-4.403c1.6-0.151,3.216,0.369,4.565,1.242s2.453,2.081,3.403,3.377
					c-0.852-2.59-0.236-5.797,1.766-7.649c2.001-1.852,5.107-2.403,7.624-1.353c2.517,1.05,4.31,3.645,4.401,6.37
					c0.092,2.725-1.522,5.435-3.963,6.652c2.169-0.387,4.313-0.042,6.328,0.847c2.015,0.89,3.721,2.562,4.436,4.646
					c0.715,2.084,0.345,4.559-1.118,6.206c-1.915,2.156-5.307,2.517-7.99,1.459C474.428,69.691,472.592,67.025,470.95,64.655z"/>
				
					<path style="fill:#FFFFFF;stroke:#231F20;stroke-width:2;stroke-linecap:round;stroke-linejoin:round;stroke-miterlimit:10;" d="
					M463.651,57.933c-0.688,1.641-0.284,3.68,0.978,4.935c1.261,1.255,3.303,1.648,4.94,0.951c1.637-0.696,2.77-2.44,2.74-4.218
					C472.227,54.554,465.604,53.273,463.651,57.933z"/>
			</g>
		</g>
		<g>
			<path style="fill:none;stroke:#231F20;stroke-width:2;stroke-linecap:round;stroke-linejoin:round;stroke-miterlimit:10;" d="
				M387.515,34.963c14.18,6.002,26.147,17.081,33.221,30.757c7.074,13.676,9.202,29.845,5.908,44.886
				c-4.588,20.944-19.055,38.9-22.441,60.072c-2.352,14.704,0.939,29.958,7.502,43.324c6.564,13.366,16.261,24.982,26.973,35.326"/>
			<path style="fill:#FFFFFF;stroke:#231F20;stroke-width:2;stroke-linecap:round;stroke-linejoin:round;stroke-miterlimit:10;" d="
				M396.447,40.231c-0.023-0.138-7.924,0.569-8.772,0.542c-3.025-0.096-6.026-0.973-8.612-2.549
				c-4.501-2.743-7.358-7.543-8.751-12.528c-0.058-0.207,7.512-1.371,8.177-1.364c2.944,0.029,5.886,0.773,8.466,2.198
				C391.874,29.248,395.535,34.708,396.447,40.231z"/>
			<path style="fill:#FFFFFF;stroke:#231F20;stroke-width:2;stroke-linecap:round;stroke-linejoin:round;stroke-miterlimit:10;" d="
				M419.044,24.493c-4.34,2.296-7.797,6.216-9.532,10.81s-1.733,9.82,0.005,14.412c5.208-1.492,9.3-5.182,11.37-10.188
				C422.957,34.52,421.678,29.227,419.044,24.493z"/>
			<path style="fill:#FFFFFF;stroke:#231F20;stroke-width:2;stroke-linecap:round;stroke-linejoin:round;stroke-miterlimit:10;" d="
				M392.632,64.715c3.951-3.363,9.199-5.161,14.382-4.929s10.249,2.492,13.884,6.194c-3.874,3.906-9.066,6.466-14.567,6.466
				C400.829,72.447,396.507,68.62,392.632,64.715z"/>
			<path style="fill:#FFFFFF;stroke:#231F20;stroke-width:2;stroke-linecap:round;stroke-linejoin:round;stroke-miterlimit:10;" d="
				M444.492,65.484c-4.688-0.234-9.441,1.597-12.762,4.913c-3.321,3.317-5.157,8.068-4.929,12.756
				c4.921,1.178,9.85,0.056,13.61-3.33C444.171,76.437,445.151,70.502,444.492,65.484z"/>
			<path style="fill:#FFFFFF;stroke:#231F20;stroke-width:2;stroke-linecap:round;stroke-linejoin:round;stroke-miterlimit:10;" d="
				M427.375,105.661c-1.63-5.322-5.57-9.891-10.594-12.287c-5.024-2.395-11.055-2.58-16.216-0.497
				c1.748,5.152,5.149,9.862,10.044,12.238S422.246,107.477,427.375,105.661z"/>
			<path style="fill:#FFFFFF;stroke:#231F20;stroke-width:2;stroke-linecap:round;stroke-linejoin:round;stroke-miterlimit:10;" d="
				M424.003,120.335c2.341-4.186,6.112-7.555,10.534-9.412c4.422-1.857,9.467-2.191,14.095-0.932
				c-1.796,4.862-4.771,9.157-9.538,11.193C434.327,123.219,428.757,122.399,424.003,120.335z"/>
			<path style="fill:#FFFFFF;stroke:#231F20;stroke-width:2;stroke-linecap:round;stroke-linejoin:round;stroke-miterlimit:10;" d="
				M414.26,140.313c1.028-5.076-1.071-10.655-5.191-13.794c-4.12-3.138-10.056-3.681-14.677-1.342
				c0.192,4.736,2.179,9.621,5.894,12.564C404.001,140.685,409.605,141.21,414.26,140.313z"/>
			<path style="fill:#FFFFFF;stroke:#231F20;stroke-width:2;stroke-linecap:round;stroke-linejoin:round;stroke-miterlimit:10;" d="
				M405.119,170.341c0.794-5.533,4.217-10.63,9.037-13.46c4.82-2.83,10.939-3.335,16.158-1.332c0.851,3.978-1.162,8.089-3.96,11.043
				c-2.798,2.954-6.735,4.666-10.755,5.289C411.578,172.503,409.111,171.128,405.119,170.341z"/>
			<path style="fill:#FFFFFF;stroke:#231F20;stroke-width:2;stroke-linecap:round;stroke-linejoin:round;stroke-miterlimit:10;" d="
				M406.444,199.66c-2.055-4.171-5.961-7.387-10.449-8.603c-4.488-1.215-9.484-0.41-13.362,2.154
				c0.619,5.337,4.014,10.145,9.159,11.69C396.937,206.448,402.986,203.772,406.444,199.66z"/>
			<path style="fill:#FFFFFF;stroke:#231F20;stroke-width:2;stroke-linecap:round;stroke-linejoin:round;stroke-miterlimit:10;" d="
				M419.134,225.865c-1.083-5.151-0.078-10.71,2.741-15.156c2.818-4.446,7.418-7.726,12.539-8.944
				c2.675,5.3,2.707,11.891-0.526,16.871S425.064,226.152,419.134,225.865z"/>
			<path style="fill:#FFFFFF;stroke:#231F20;stroke-width:2;stroke-linecap:round;stroke-linejoin:round;stroke-miterlimit:10;" d="
				M426.711,236.338c-4.624-2.815-10.251-3.939-15.602-3.118c-5.35,0.822-10.381,3.583-13.948,7.655
				c3.702,4.869,10.001,7.428,16.075,6.711C419.312,246.869,424.245,241.934,426.711,236.338z"/>
		</g>
		<g>
			<g>
				
					<path style="fill:#FFFFFF;stroke:#231F20;stroke-width:2;stroke-linecap:round;stroke-linejoin:round;stroke-miterlimit:10;" d="
					M276.506,217.328c0-8.081-6.551-14.632-14.632-14.632c-2.134,0-4.159,0.461-5.987,1.282c0.299-1.166,0.459-2.389,0.459-3.648
					c0-8.081-6.551-14.632-14.632-14.632s-14.632,6.551-14.632,14.632c0,1.259,0.159,2.482,0.459,3.648
					c-1.828-0.821-3.853-1.282-5.987-1.282c-8.081,0-14.632,6.551-14.632,14.632c0,6.436,4.157,11.897,9.931,13.856
					c-1.569,2.331-2.485,5.138-2.485,8.159c0,8.081,6.551,14.632,14.632,14.632c5.447,0,10.195-2.979,12.714-7.394
					c2.519,4.415,7.267,7.394,12.714,7.394c8.081,0,14.632-6.551,14.632-14.632c0-3.021-0.916-5.828-2.485-8.159
					C272.349,229.225,276.506,223.764,276.506,217.328z"/>
				<g>
					
						<path style="fill:#FFFFFF;stroke:#231F20;stroke-width:2;stroke-linecap:round;stroke-linejoin:round;stroke-miterlimit:10;" d="
						M244.087,212.417h-4.849v-15.787c0-1.339,1.085-2.424,2.424-2.424l0,0c1.339,0,2.424,1.085,2.424,2.424V212.417z"/>
					
						<path style="fill:#FFFFFF;stroke:#231F20;stroke-width:2;stroke-linecap:round;stroke-linejoin:round;stroke-miterlimit:10;" d="
						M251.719,223.218l-1.699-4.541l14.785-5.533c1.254-0.469,2.651,0.167,3.12,1.421h0c0.469,1.254-0.167,2.651-1.421,3.12
						L251.719,223.218z"/>
					
						<path style="fill:#FFFFFF;stroke:#231F20;stroke-width:2;stroke-linecap:round;stroke-linejoin:round;stroke-miterlimit:10;" d="
						M245.283,231.482l3.857-2.938l9.565,12.559c0.811,1.065,0.605,2.586-0.46,3.398l0,0c-1.065,0.811-2.586,0.605-3.398-0.46
						L245.283,231.482z"/>
					
						<path style="fill:#FFFFFF;stroke:#231F20;stroke-width:2;stroke-linecap:round;stroke-linejoin:round;stroke-miterlimit:10;" d="
						M235.314,228.532l3.546,3.307l-10.768,11.544c-0.913,0.979-2.447,1.032-3.426,0.119l0,0c-0.979-0.913-1.033-2.447-0.119-3.426
						L235.314,228.532z"/>
					
						<path style="fill:#FFFFFF;stroke:#231F20;stroke-width:2;stroke-linecap:round;stroke-linejoin:round;stroke-miterlimit:10;" d="
						M233.289,219.547l-1.61,4.574l-14.891-5.24c-1.263-0.445-1.926-1.829-1.482-3.092l0,0c0.445-1.263,1.829-1.927,3.092-1.482
						L233.289,219.547z"/>
				</g>
			</g>
			<g>
				
					<ellipse transform="matrix(0.7071 -0.7071 0.7071 0.7071 -86.7699 236.1841)" style="fill:#FFFFFF;stroke:#231F20;stroke-width:2;stroke-linecap:round;stroke-linejoin:round;stroke-miterlimit:10;" cx="241.715" cy="222.833" rx="17.486" ry="17.486"/>
				<g>
					<path style="fill:#231F20;" d="M235.457,223.167c-0.208,0.786-1.014,1.255-1.8,1.047c-0.786-0.208-1.255-1.014-1.047-1.8
						c0.208-0.786,1.014-1.255,1.8-1.047C235.196,221.575,235.665,222.381,235.457,223.167z"/>
					<path style="fill:none;stroke:#231F20;stroke-width:2;stroke-linecap:round;stroke-linejoin:round;stroke-miterlimit:10;" d="
						M236.072,226.008c1.445,1.576,3.54,2.537,5.677,2.604c2.137,0.068,4.288-0.759,5.83-2.24"/>
					<path style="fill:none;stroke:#231F20;stroke-width:2;stroke-linecap:round;stroke-linejoin:round;stroke-miterlimit:10;" d="
						M244.895,223.179c0.641-0.951,1.729-1.586,2.872-1.677c1.143-0.091,2.318,0.363,3.102,1.2"/>
				</g>
			</g>
		</g>
	</g>
	<g>
		<g>
			<path style="fill:#FFFFFF;stroke:#231F20;stroke-width:2;stroke-linecap:round;stroke-linejoin:round;stroke-miterlimit:10;" d="
				M175.179,223.238c-2.736-0.516-5.273-2.032-7.023-4.198c-1.751-2.165-2.701-4.963-2.633-7.747
				c0.044-1.768,0.545-3.622,1.843-4.824c1.608-1.49,4.183-1.63,6.149-0.66c1.966,0.97,3.352,2.875,4.098,4.937
				c0.935-2.996,2.927-5.141,5.984-5.851s6.609,0.77,7.891,3.634c1.13,2.524,0.261,5.785-1.977,7.411
				c2.163-1.199,4.862-2.126,7.151-1.19c1.843,0.753,2.937,2.849,2.811,4.836c-0.126,1.987-1.317,3.806-2.903,5.01
				c-1.586,1.203-3.533,1.849-5.492,2.202C186.096,227.696,180.155,224.177,175.179,223.238z"/>
			<path style="fill:#FFFFFF;stroke:#231F20;stroke-width:2;stroke-linecap:round;stroke-linejoin:round;stroke-miterlimit:10;" d="
				M88.698,163.592c-4.259-0.674-8.32-2.549-11.596-5.353c-1.237-1.059-2.381-2.272-3.09-3.738s-0.943-3.217-0.354-4.735
				c0.863-2.224,3.325-3.505,5.707-3.649c2.382-0.143,4.713,0.641,6.948,1.478c-1.521-2.463-0.755-5.633,0.91-8.002
				c1.664-2.368,4.797-3.602,7.629-3.005c2.832,0.597,5.201,2.99,5.768,5.828c0.179-2.306,1.647-4.087,3.788-4.961
				c2.141-0.874,4.759-0.439,6.501,1.083c2.663,2.325,2.891,6.44,2.005,9.863c-1.264,4.887-4.426,9.256-8.671,11.986
				C99.997,163.116,93.683,164.382,88.698,163.592z"/>
			<path style="fill:#FFFFFF;stroke:#231F20;stroke-width:2;stroke-linecap:round;stroke-linejoin:round;stroke-miterlimit:10;" d="
				M173.169,217.63c-10.844,0-19.747,7.752-20.403,17.652c-0.508,7.669-0.633,15.321-0.102,22.945
				c0.567,8.139-5.781,15.32-14.586,16.61l-3.293,0.483c1.419-20.491,2.623-41.04,2.494-61.588
				c-0.052-8.291-0.738-16.477-1.266-24.705c-0.624-9.725-1.461-18.059-7.285-26.347c-2.752-3.916-7.192-7.221-11.397-9.5
				c-5.621-3.047-12.06-3.695-18.122-1.597c-15.997,5.538-23.345,21.462-23.599,37.299c-0.293,18.274-2.16,36.694-2.391,55.064
				c-0.044,3.488-1.068,38.891,0.053,39.063c-6.825-1.044-12.058-6.922-12.058-14.039v-29.599c0-7.718-4.285-14.963-11.297-18.187
				c-7.339-3.375-13.867-0.619-19.476,9.082c-1.199,2.074-1.984,4.366-2.39,6.727c-3.652,21.251-2.957,40.657,2.373,67.624
				c2.148,10.868,10.958,19.241,21.943,20.681c6.983,0.915,14.314,1.168,21.893,0.947c0.763,24.441,1.855,49.919,3.113,75.725
				h48.021c1.444-25.938,3.548-52.117,5.585-77.343c17.502,0.885,31.249-3.859,43.406-13.229c5.875-4.528,10-10.687,11.643-17.551
				c3.414-14.262,5.746-33.838,7.518-56.157C194.406,226.859,185.042,217.63,173.169,217.63z"/>
			<g>
				
					<path style="fill:#FFFFFF;stroke:#231F20;stroke-width:2;stroke-linecap:round;stroke-linejoin:round;stroke-miterlimit:10;" d="
					M90.876,170.456c1.15,2.348,2.301,4.696,3.452,7.043c0.356,0.727,0.724,1.47,1.312,2.026c0.588,0.556,1.451,0.894,2.22,0.643
					c0.806-0.263,1.288-1.065,1.699-1.806c1.373-2.475,2.747-4.951,4.12-7.426"/>
				
					<path style="fill:#FFFFFF;stroke:#231F20;stroke-width:2;stroke-linecap:round;stroke-linejoin:round;stroke-miterlimit:10;" d="
					M110.89,193.347c1.266,2.964,2.532,5.929,3.798,8.893c0.324,0.758,0.755,1.61,1.558,1.794c0.586,0.134,1.204-0.155,1.621-0.589
					c0.416-0.434,0.67-0.994,0.916-1.543c1.369-3.057,2.739-6.113,4.108-9.17"/>
				
					<path style="fill:#FFFFFF;stroke:#231F20;stroke-width:2;stroke-linecap:round;stroke-linejoin:round;stroke-miterlimit:10;" d="
					M87.912,224.66c0.973,0.996,1.46,2.358,1.885,3.683c0.426,1.326,0.837,2.697,1.705,3.786c0.868,1.089,2.328,1.836,3.662,1.438
					c1.143-0.341,1.903-1.4,2.515-2.424c1.484-2.485,2.623-5.177,3.373-7.973"/>
				
					<path style="fill:#FFFFFF;stroke:#231F20;stroke-width:2;stroke-linecap:round;stroke-linejoin:round;stroke-miterlimit:10;" d="
					M108.829,252.471c1.461,2.846,2.923,5.692,4.384,8.538c0.496,0.965,1.233,2.076,2.316,2.005
					c1.108-0.073,1.686-1.321,2.031-2.376c0.999-3.057,1.997-6.114,2.996-9.17"/>
				
					<path style="fill:#FFFFFF;stroke:#231F20;stroke-width:2;stroke-linecap:round;stroke-linejoin:round;stroke-miterlimit:10;" d="
					M85.327,281.49c0.903,2.836,2.141,5.565,3.68,8.112c0.438,0.724,1.124,1.533,1.948,1.342c0.585-0.135,0.929-0.724,1.205-1.258
					c1.64-3.173,3.28-6.347,4.919-9.521"/>
				
					<path style="fill:#FFFFFF;stroke:#231F20;stroke-width:2;stroke-linecap:round;stroke-linejoin:round;stroke-miterlimit:10;" d="
					M39.013,233.545c1.342,2.334,2.684,4.668,4.027,7.003c0.446,0.775,0.95,1.603,1.781,1.934c0.992,0.395,2.16-0.078,2.888-0.859
					c0.728-0.781,1.112-1.813,1.478-2.816c0.698-1.912,1.396-3.825,2.095-5.737"/>
				
					<path style="fill:#FFFFFF;stroke:#231F20;stroke-width:2;stroke-linecap:round;stroke-linejoin:round;stroke-miterlimit:10;" d="
					M32.225,262.237c1.426,2.372,2.852,4.744,4.278,7.116c0.643,1.069,1.594,2.291,2.824,2.083c1.04-0.176,1.604-1.285,2.006-2.259
					c1.104-2.672,2.209-5.343,3.313-8.015"/>
				
					<path style="fill:#FFFFFF;stroke:#231F20;stroke-width:2;stroke-linecap:round;stroke-linejoin:round;stroke-miterlimit:10;" d="
					M47.92,297.128c1.678,3.276,3.356,6.553,5.033,9.829c0.508,0.992,1.182,2.104,2.161,2.122c1.089,0.02,1.8-1.307,2.287-2.463
					c1.407-3.338,2.813-6.675,4.22-10.013"/>
				
					<path style="fill:#FFFFFF;stroke:#231F20;stroke-width:2;stroke-linecap:round;stroke-linejoin:round;stroke-miterlimit:10;" d="
					M117.905,303.567c1.674,2.408,3.348,4.816,5.022,7.224c0.644,0.927,1.494,1.96,2.621,1.888c1.249-0.079,1.949-1.437,2.402-2.603
					c1.127-2.904,2.254-5.808,3.382-8.712"/>
				
					<path style="fill:#FFFFFF;stroke:#231F20;stroke-width:2;stroke-linecap:round;stroke-linejoin:round;stroke-miterlimit:10;" d="
					M145.003,290.272c1.137,0.72,1.897,1.896,2.565,3.065c0.667,1.169,1.297,2.392,2.277,3.314c0.98,0.922,2.417,1.496,3.692,1.064
					c1.295-0.439,2.058-1.742,2.708-2.945c1.461-2.706,2.922-5.412,4.382-8.118"/>
				
					<path style="fill:#FFFFFF;stroke:#231F20;stroke-width:2;stroke-linecap:round;stroke-linejoin:round;stroke-miterlimit:10;" d="
					M158.595,254.704c1.339,2.414,2.677,4.828,4.015,7.242c0.584,1.053,1.408,2.251,2.611,2.212
					c1.113-0.036,1.859-1.119,2.417-2.084c1.83-3.165,3.66-6.331,5.489-9.496"/>
				
					<path style="fill:#FFFFFF;stroke:#231F20;stroke-width:2;stroke-linecap:round;stroke-linejoin:round;stroke-miterlimit:10;" d="
					M178.074,238.211c1.721,2.507,3.114,5.24,4.13,8.106c0.461,1.301,1.125,2.869,2.499,3.001c1.142,0.11,2.065-0.883,2.721-1.824
					c1.696-2.435,2.971-5.163,3.75-8.027"/>
				
					<path style="fill:#FFFFFF;stroke:#231F20;stroke-width:2;stroke-linecap:round;stroke-linejoin:round;stroke-miterlimit:10;" d="
					M93.36,321.135c1.052,2.839,2.104,5.678,3.155,8.517c0.255,0.688,0.517,1.389,0.976,1.96s1.158,1.002,1.89,0.95
					c1.183-0.085,1.911-1.292,2.436-2.355c1.854-3.756,3.708-7.511,5.563-11.267"/>
				
					<path style="fill:#FFFFFF;stroke:#231F20;stroke-width:2;stroke-linecap:round;stroke-linejoin:round;stroke-miterlimit:10;" d="
					M104.55,353.83c1.205,2.736,2.409,5.472,3.614,8.208c0.434,0.986,0.913,2.026,1.815,2.616c0.863,0.565,1.998,0.607,2.978,0.285
					c0.98-0.323,1.821-0.975,2.54-1.714c2.751-2.829,3.825-6.841,4.797-10.666"/>
			</g>
		</g>
		<g>
			<path style="fill:#FFFFFF;stroke:#231F20;stroke-width:2;stroke-linecap:round;stroke-linejoin:round;stroke-miterlimit:10;" d="
				M162.035,387.633c0.377-4.466-3.146-8.299-7.628-8.299h-51.398h-3.318H48.293c-4.482,0-8.005,3.833-7.628,8.299l5.759,68.235
				c0.814,9.644,7.985,17.523,17.5,19.295c10.312,1.921,22.236,3.067,35.768,3.441v0.08c0.56-0.01,1.104-0.027,1.659-0.04
				c0.555,0.013,1.099,0.03,1.659,0.04v-0.08c13.531-0.374,25.455-1.521,35.767-3.441c9.515-1.772,16.686-9.651,17.5-19.295
				L162.035,387.633z"/>
			
				<line style="fill:none;stroke:#231F20;stroke-width:2;stroke-linecap:round;stroke-linejoin:round;stroke-miterlimit:10;" x1="42.122" y1="404.891" x2="160.579" y2="404.891"/>
			
				<line style="fill:none;stroke:#231F20;stroke-width:2;stroke-linecap:round;stroke-linejoin:round;stroke-miterlimit:10;" x1="159.998" y1="411.777" x2="42.703" y2="411.777"/>
			<g>
				<path style="fill:#231F20;" d="M81.403,434.748c-0.657,2.226-2.993,3.498-5.219,2.841c-2.226-0.656-3.498-2.993-2.841-5.219
					s2.993-3.498,5.219-2.841C80.788,430.186,82.06,432.522,81.403,434.748z"/>
				<path style="fill:none;stroke:#231F20;stroke-width:2;stroke-linecap:round;stroke-linejoin:round;stroke-miterlimit:10;" d="
					M108.319,435.547c1.906-2.659,5.059-4.382,8.327-4.549c3.267-0.167,6.58,1.224,8.748,3.675"/>
				
					<path style="fill:#FFFFFF;stroke:#231F20;stroke-width:2;stroke-linecap:round;stroke-linejoin:round;stroke-miterlimit:10;" d="
					M82.12,441.306c9.918,0.51,19.837,1.021,29.756,1.532c0.346,5.857-2.656,11.854-7.617,14.986
					c-4.961,3.132-11.783,3.141-16.623-0.175C82.796,454.332,80.439,446.927,82.12,441.306z"/>
			</g>
		</g>
	</g>
	<g>
		<g>
			<g>
				<g>
					
						<path style="fill:#FFFFFF;stroke:#231F20;stroke-width:2;stroke-linecap:round;stroke-linejoin:round;stroke-miterlimit:10;" d="
						M327.881,163.185c-14.1,1.649-28.824-3.106-39.295-12.691c-10.471-9.585-16.507-23.833-16.107-38.023
						c14.644-1.818,29.352,2.584,40.504,12.249C324.134,134.383,327.599,148.431,327.881,163.185z"/>
					
						<path style="fill:#FFFFFF;stroke:#231F20;stroke-width:2;stroke-linecap:round;stroke-linejoin:round;stroke-miterlimit:10;" d="
						M279.971,119.096c17.97,10.137,33.315,24.882,44.161,42.433"/>
				</g>
				<g>
					
						<path style="fill:#FFFFFF;stroke:#231F20;stroke-width:2;stroke-linecap:round;stroke-linejoin:round;stroke-miterlimit:10;" d="
						M319.458,166.589c14.1,1.649,28.824-3.106,39.295-12.691c10.471-9.585,16.507-23.833,16.107-38.023
						c-14.644-1.818-29.352,2.584-40.504,12.248C323.205,137.787,319.74,151.835,319.458,166.589z"/>
					
						<path style="fill:#FFFFFF;stroke:#231F20;stroke-width:2;stroke-linecap:round;stroke-linejoin:round;stroke-miterlimit:10;" d="
						M367.368,122.5c-17.97,10.137-33.315,24.882-44.161,42.433"/>
				</g>
			</g>
			<g>
				
					<path style="fill:#FFFFFF;stroke:#231F20;stroke-width:2;stroke-linecap:round;stroke-linejoin:round;stroke-miterlimit:10;" d="
					M331.174,83.922c-7.978,26.644-10.78,54.821-5.52,82.132c-1.753,0.08-3.148-0.735-4.901-0.655
					c-4.764-27.675-3.253-56.411,4.386-83.435C327.371,82.434,328.941,83.451,331.174,83.922z"/>
				<g>
					
						<path style="fill:#FFFFFF;stroke:#231F20;stroke-width:2;stroke-linecap:round;stroke-linejoin:round;stroke-miterlimit:10;" d="
						M347.721,96.797c-1.485,0.966-3.462,0.884-5.107,0.229c-1.645-0.656-3.033-1.813-4.39-2.951c1.14,1.124,1.619,2.875,1.21,4.423
						c-0.409,1.548-1.691,2.833-3.238,3.246c-2.143,0.573-4.442-0.504-5.99-2.092c-3.116-3.198-3.683-8.576-1.303-12.354
						c2.549-4.047,9.998-6.902,14.518-4.776C347.703,84.535,353.276,93.184,347.721,96.797z"/>
					
						<path style="fill:#FFFFFF;stroke:#231F20;stroke-width:2;stroke-linecap:round;stroke-linejoin:round;stroke-miterlimit:10;" d="
						M304.973,94.282c1.485,0.966,3.462,0.884,5.107,0.229c1.645-0.656,3.033-1.813,4.39-2.951c-1.14,1.124-1.619,2.875-1.21,4.423
						c0.409,1.548,1.691,2.833,3.238,3.246c2.143,0.573,4.442-0.504,5.99-2.092c3.116-3.198,3.683-8.576,1.303-12.354
						c-2.549-4.047-9.998-6.902-14.518-4.776C304.991,82.02,299.419,90.669,304.973,94.282z"/>
					
						<path style="fill:#FFFFFF;stroke:#231F20;stroke-width:2;stroke-linecap:round;stroke-linejoin:round;stroke-miterlimit:10;" d="
						M350.44,61.643c0.846-13.802-3.662-27.855-13.596-37.475c-12.663,5.674-21.775,18.573-22.892,32.403
						C324.543,62.047,338.779,64.127,350.44,61.643z"/>
					
						<path style="fill:#FFFFFF;stroke:#231F20;stroke-width:2;stroke-linecap:round;stroke-linejoin:round;stroke-miterlimit:10;" d="
						M338.301,89.564c-9.277,3.221-20.075,0.265-27.345-6.336c-7.27-6.602-11.188-16.386-11.872-26.182
						c-0.684-9.796,2.353-19.686,6.054-28.782c19.526,10.722,32.741,32.109,33.597,54.369
						C338.818,84.785,338.168,87.413,338.301,89.564z"/>
					
						<path style="fill:#FFFFFF;stroke:#231F20;stroke-width:2;stroke-linecap:round;stroke-linejoin:round;stroke-miterlimit:10;" d="
						M363.416,39.193c-11.668,2.157-22.647,7.902-31.071,16.259c-8.424,8.357-14.256,19.29-16.506,30.94
						c7.87,6.157,18.338,6.872,27.671,3.304c9.333-3.569,16.674-11.587,20.193-20.939C367.222,59.406,366.39,48.732,363.416,39.193z
						"/>
				</g>
			</g>
		</g>
		<g>
			<g>
				
					<path style="fill:#FFFFFF;stroke:#231F20;stroke-width:2;stroke-linecap:round;stroke-linejoin:round;stroke-miterlimit:10;" d="
					M353.105,252.249h-49.911c-4.502,0-8.348-3.247-9.103-7.686l-10.842-63.76h88.512l-9.524,63.58
					C361.56,248.904,357.677,252.249,353.105,252.249z"/>
				
					<path style="fill:#FFFFFF;stroke:#231F20;stroke-width:2;stroke-linecap:round;stroke-linejoin:round;stroke-miterlimit:10;" d="
					M375.377,186.299h-96.611c-8.099-10.291-8.099-20.582,0-30.873h96.611C384.633,165.717,384.633,176.008,375.377,186.299z"/>
			</g>
			<g>
				<path style="fill:none;stroke:#231F20;stroke-width:2;stroke-linecap:round;stroke-linejoin:round;stroke-miterlimit:10;" d="
					M316.983,224.576c3.278,3.401,7.958,5.409,12.682,5.441c4.724,0.032,9.43-1.912,12.755-5.269"/>
				<path style="fill:none;stroke:#231F20;stroke-width:2;stroke-linecap:round;stroke-linejoin:round;stroke-miterlimit:10;" d="
					M307.588,219.836c1.392-2.379,3.857-4.102,6.57-4.592c2.713-0.49,5.625,0.262,7.761,2.004"/>
				<path style="fill:none;stroke:#231F20;stroke-width:2;stroke-linecap:round;stroke-linejoin:round;stroke-miterlimit:10;" d="
					M335.972,216.374c2.202-1.497,4.904-2.247,7.563-2.099c2.659,0.148,5.26,1.193,7.283,2.926"/>
			</g>
		</g>
	</g>
	<g>
		<g>
			<g>
				<g>
					
						<path style="fill:#FFFFFF;stroke:#231F20;stroke-width:2;stroke-linecap:round;stroke-linejoin:round;stroke-miterlimit:10;" d="
						M299.229,286.982c7.48-3.077,16.357-2.699,23.423,1.236c7.066,3.934,12.105,11.411,12.843,19.465
						c0.569,6.214-1.322,12.479-4.452,17.878c-2.738,4.723-6.597,9.013-11.64,11.101c-5.258,2.177-11.335,1.737-16.681-0.216
						c-11.475-4.19-21.8-16.452-20.306-29.16C283.539,297.722,290.605,290.529,299.229,286.982z"/>
					
						<path style="fill:#FFFFFF;stroke:#231F20;stroke-width:2;stroke-linecap:round;stroke-linejoin:round;stroke-miterlimit:10;" d="
						M325.22,322.059c3.748,1.046,7.496,2.092,11.244,3.138"/>
					
						<path style="fill:#FFFFFF;stroke:#231F20;stroke-width:2;stroke-linecap:round;stroke-linejoin:round;stroke-miterlimit:10;" d="
						M327.39,309.436c3.288-2.678,6.575-5.355,9.863-8.033"/>
					
						<path style="fill:#FFFFFF;stroke:#231F20;stroke-width:2;stroke-linecap:round;stroke-linejoin:round;stroke-miterlimit:10;" d="
						M322.124,292.041c0.81-2.575,1.619-5.15,2.429-7.725"/>
					
						<path style="fill:#FFFFFF;stroke:#231F20;stroke-width:2;stroke-linecap:round;stroke-linejoin:round;stroke-miterlimit:10;" d="
						M300.57,280.992c0.588,3.164,1.177,6.328,1.765,9.492"/>
					
						<path style="fill:#FFFFFF;stroke:#231F20;stroke-width:2;stroke-linecap:round;stroke-linejoin:round;stroke-miterlimit:10;" d="
						M313.299,282.551c-0.515,2.649-1.03,5.298-1.545,7.946"/>
					
						<path style="fill:#FFFFFF;stroke:#231F20;stroke-width:2;stroke-linecap:round;stroke-linejoin:round;stroke-miterlimit:10;" d="
						M316.389,303.521c-1.251,1.839-2.502,3.679-3.752,5.518"/>
				</g>
				<g>
					
						<path style="fill:#FFFFFF;stroke:#231F20;stroke-width:2;stroke-linecap:round;stroke-linejoin:round;stroke-miterlimit:10;" d="
						M252.581,402.115c14.744,2.77,29.814-2.697,39.555-14.106c6.144-7.195,11.63-14.859,15.61-23.423
						c12.572-27.053,2.922-59.34-24.061-73.242c-18.698-9.634-42.725-8.31-59.889,3.849s-26.404,34.805-22.03,55.379
						c3.908,18.381,17.38,33.369,32.491,44.538C239.43,398.933,245.845,400.85,252.581,402.115z"/>
					<g>
						<path style="fill:none;stroke:#231F20;stroke-width:2;stroke-linecap:round;stroke-linejoin:round;stroke-miterlimit:10;" d="
							M229.824,347.764c1.857-3.079,5.102-5.285,8.648-5.877c3.547-0.592,7.332,0.438,10.089,2.747"/>
						<path style="fill:none;stroke:#231F20;stroke-width:2;stroke-linecap:round;stroke-linejoin:round;stroke-miterlimit:10;" d="
							M266.907,343.735c2.898-1.915,6.435-2.847,9.901-2.608c3.466,0.239,6.841,1.647,9.449,3.942"/>
						
							<path style="fill:#FFFFFF;stroke:#231F20;stroke-width:2;stroke-linecap:round;stroke-linejoin:round;stroke-miterlimit:10;" d="
							M275.706,353.874c-10.645,0.408-21.29,0.817-31.935,1.226c2.144,7.355,9.226,13.282,16.887,13.224
							C268.319,368.266,273.673,361.261,275.706,353.874z"/>
					</g>
					
						<path style="fill:#FFFFFF;stroke:#231F20;stroke-width:2;stroke-linecap:round;stroke-linejoin:round;stroke-miterlimit:10;" d="
						M213.323,324.229c-4.413-1.697-8.826-3.394-13.238-5.091"/>
					
						<path style="fill:#FFFFFF;stroke:#231F20;stroke-width:2;stroke-linecap:round;stroke-linejoin:round;stroke-miterlimit:10;" d="
						M208.232,336.748c-4.93-0.085-9.859-0.169-14.789-0.254"/>
					
						<path style="fill:#FFFFFF;stroke:#231F20;stroke-width:2;stroke-linecap:round;stroke-linejoin:round;stroke-miterlimit:10;" d="
						M225.917,320.028c2.359,1.39,4.719,2.779,7.078,4.169"/>
					
						<path style="fill:#FFFFFF;stroke:#231F20;stroke-width:2;stroke-linecap:round;stroke-linejoin:round;stroke-miterlimit:10;" d="
						M285.435,304.688c-1.151,3.027-2.302,6.053-3.452,9.08"/>
					
						<path style="fill:#FFFFFF;stroke:#231F20;stroke-width:2;stroke-linecap:round;stroke-linejoin:round;stroke-miterlimit:10;" d="
						M292.53,324.9c2.574-1.621,5.148-3.242,7.722-4.862"/>
					
						<path style="fill:#FFFFFF;stroke:#231F20;stroke-width:2;stroke-linecap:round;stroke-linejoin:round;stroke-miterlimit:10;" d="
						M302.479,347.879c3.768-1.91,7.929-3.04,12.145-3.297"/>
					
						<path style="fill:#FFFFFF;stroke:#231F20;stroke-width:2;stroke-linecap:round;stroke-linejoin:round;stroke-miterlimit:10;" d="
						M306.236,362.391c3.09-0.006,6.181-0.012,9.271-0.018"/>
					
						<path style="fill:#FFFFFF;stroke:#231F20;stroke-width:2;stroke-linecap:round;stroke-linejoin:round;stroke-miterlimit:10;" d="
						M214.495,357.191c-3.6,0.615-7.2,1.229-10.8,1.844"/>
					
						<path style="fill:#FFFFFF;stroke:#231F20;stroke-width:2;stroke-linecap:round;stroke-linejoin:round;stroke-miterlimit:10;" d="
						M254.457,326.424c-1.405-3.249-2.81-6.497-4.215-9.746"/>
					
						<path style="fill:#FFFFFF;stroke:#231F20;stroke-width:2;stroke-linecap:round;stroke-linejoin:round;stroke-miterlimit:10;" d="
						M263.229,320.859c0.439-2.985,0.878-5.97,1.317-8.956"/>
				</g>
				<g>
					
						<path style="fill:#FFFFFF;stroke:#231F20;stroke-width:2;stroke-linecap:round;stroke-linejoin:round;stroke-miterlimit:10;" d="
						M247.145,296.928c0.579,7.94-5.949,15.73-13.868,16.549c-7.919,0.819-15.903-5.47-16.962-13.361
						c-1.042-7.772,5.59-17.245,13.71-18.084C238.144,281.193,246.574,289.105,247.145,296.928z"/>
					
						<path style="fill:#FFFFFF;stroke:#231F20;stroke-width:2;stroke-linecap:round;stroke-linejoin:round;stroke-miterlimit:10;" d="
						M224.353,295.337c-2.353-1.326-4.707-2.652-7.06-3.979"/>
					
						<path style="fill:#FFFFFF;stroke:#231F20;stroke-width:2;stroke-linecap:round;stroke-linejoin:round;stroke-miterlimit:10;" d="
						M230.469,291.366c-0.185-2.13-0.37-4.261-0.555-6.391"/>
					
						<path style="fill:#FFFFFF;stroke:#231F20;stroke-width:2;stroke-linecap:round;stroke-linejoin:round;stroke-miterlimit:10;" d="
						M235.301,298.714c0.535-1.538,1.07-3.076,1.605-4.615"/>
					
						<path style="fill:#FFFFFF;stroke:#231F20;stroke-width:2;stroke-linecap:round;stroke-linejoin:round;stroke-miterlimit:10;" d="
						M230.74,307.787c-1.144-1.664-2.288-3.329-3.432-4.993"/>
				</g>
				<g>
					
						<path style="fill:#FFFFFF;stroke:#231F20;stroke-width:2;stroke-linecap:round;stroke-linejoin:round;stroke-miterlimit:10;" d="
						M240.395,278.953c-0.253,0.701-0.467,1.429-0.637,2.184c-1.835,8.125,1.225,17.288,7.848,22.42
						c7.214,5.59,18.147,5.845,25.516,0.46c7.369-5.385,10.431-16.013,6.902-24.431c-3.323-7.927-12.936-12.983-21.334-12.75
						C250.437,267.066,243.116,271.425,240.395,278.953z"/>
					
						<path style="fill:#FFFFFF;stroke:#231F20;stroke-width:2;stroke-linecap:round;stroke-linejoin:round;stroke-miterlimit:10;" d="
						M246.009,276.772c-2.829-2.315-5.657-4.629-8.486-6.944"/>
					
						<path style="fill:#FFFFFF;stroke:#231F20;stroke-width:2;stroke-linecap:round;stroke-linejoin:round;stroke-miterlimit:10;" d="
						M256.796,270.853c0.011-2.723,0.023-5.445,0.034-8.168"/>
					
						<path style="fill:#FFFFFF;stroke:#231F20;stroke-width:2;stroke-linecap:round;stroke-linejoin:round;stroke-miterlimit:10;" d="
						M272.339,279.151c1.927-2.712,3.854-5.425,5.781-8.137"/>
					
						<path style="fill:#FFFFFF;stroke:#231F20;stroke-width:2;stroke-linecap:round;stroke-linejoin:round;stroke-miterlimit:10;" d="
						M276.867,287.81c2.796-0.811,5.591-1.622,8.386-2.433"/>
					
						<path style="fill:#FFFFFF;stroke:#231F20;stroke-width:2;stroke-linecap:round;stroke-linejoin:round;stroke-miterlimit:10;" d="
						M260.393,295.119c0.445,2.28,0.891,4.56,1.336,6.84"/>
					
						<path style="fill:#FFFFFF;stroke:#231F20;stroke-width:2;stroke-linecap:round;stroke-linejoin:round;stroke-miterlimit:10;" d="
						M253.646,282.961c-1.374,2.441-2.748,4.883-4.123,7.324"/>
					
						<path style="fill:#FFFFFF;stroke:#231F20;stroke-width:2;stroke-linecap:round;stroke-linejoin:round;stroke-miterlimit:10;" d="
						M264.101,281.202c1.919,1.981,3.838,3.962,5.756,5.943"/>
				</g>
			</g>
			<g>
				
					<path style="fill:#FFFFFF;stroke:#231F20;stroke-width:2;stroke-linecap:round;stroke-linejoin:round;stroke-miterlimit:10;" d="
					M295.412,460.494h-76.94c-7.275,0-13.173-5.898-13.173-13.174v-51.765h103.287v51.765
					C308.585,454.596,302.687,460.494,295.412,460.494z"/>
				<path style="fill:none;stroke:#231F20;stroke-width:2;stroke-linecap:round;stroke-linejoin:round;stroke-miterlimit:10;" d="
					M222.519,395.555c0.51,5.38,1.01,10.76,1.51,16.14c0.63,6.7,1.26,13.4,1.89,20.1c0.89,9.56,1.79,19.13,2.69,28.7"/>
				<path style="fill:none;stroke:#231F20;stroke-width:2;stroke-linecap:round;stroke-linejoin:round;stroke-miterlimit:10;" d="
					M249.779,395.555c0.27,4.57,0.56,9.14,0.89,13.71c0.52,7.66,1.11,15.32,1.77,22.97c0.8,9.43,1.7,18.85,2.69,28.26"/>
				<path style="fill:none;stroke:#231F20;stroke-width:2;stroke-linecap:round;stroke-linejoin:round;stroke-miterlimit:10;" d="
					M287.819,395.555c-0.2,3.45-0.38,6.91-0.53,10.36c-0.4,8.75-0.63,17.51-0.7,26.27c-0.09,9.44,0.01,18.88,0.3,28.31"/>
				<path style="fill:none;stroke:#231F20;stroke-width:2;stroke-linecap:round;stroke-linejoin:round;stroke-miterlimit:10;" d="
					M271.269,395.555c-0.05,3.94-0.08,7.88-0.07,11.83c0.01,8.3,0.16,16.61,0.42,24.91c0.31,9.41,0.78,18.81,1.42,28.2"/>
				<path style="fill:none;stroke:#231F20;stroke-width:2;stroke-linecap:round;stroke-linejoin:round;stroke-miterlimit:10;" d="
					M205.299,420.905c6.24-0.57,12.49-1.14,18.73-1.71c8.88-0.81,17.76-1.62,26.64-2.43c6.84-0.63,13.69-1.25,20.53-1.88
					c5.36-0.49,10.73-0.98,16.09-1.47c7.1-0.64,14.2-1.29,21.3-1.94"/>
				<path style="fill:none;stroke:#231F20;stroke-width:2;stroke-linecap:round;stroke-linejoin:round;stroke-miterlimit:10;" d="
					M205.299,438.645c6.87,0.26,13.75,0.48,20.62,0.65c8.84,0.22,17.68,0.37,26.52,0.44c6.39,0.07,12.78,0.09,19.18,0.06
					c4.99-0.01,9.98-0.05,14.97-0.11c7.34-0.1,14.67-0.24,22-0.43"/>
			</g>
		</g>
		<path style="fill:#FFFFFF;stroke:#231F20;stroke-width:2;stroke-linecap:round;stroke-linejoin:round;stroke-miterlimit:10;" d="
			M310.732,401.969H203.151c-5.418,0-9.81-4.392-9.81-9.81v-3.015c0-5.418,4.392-9.81,9.81-9.81h107.582
			c5.418,0,9.81,4.392,9.81,9.81v3.015C320.543,397.577,316.15,401.969,310.732,401.969z"/>
	</g>
	<g>
		<path style="fill:none;stroke:#231F20;stroke-width:2;stroke-linecap:round;stroke-linejoin:round;stroke-miterlimit:10;" d="
			M229.824,347.764c1.857-3.079,5.102-5.285,8.648-5.877c3.547-0.592,7.332,0.438,10.089,2.747"/>
		<path style="fill:none;stroke:#231F20;stroke-width:2;stroke-linecap:round;stroke-linejoin:round;stroke-miterlimit:10;" d="
			M266.907,343.735c2.898-1.915,6.435-2.847,9.901-2.608c3.466,0.239,6.841,1.647,9.449,3.942"/>
		<path style="fill:#FFFFFF;stroke:#231F20;stroke-width:2;stroke-linecap:round;stroke-linejoin:round;stroke-miterlimit:10;" d="
			M275.706,353.874c-10.645,0.408-21.29,0.817-31.935,1.226c2.144,7.355,9.226,13.282,16.887,13.224
			C268.319,368.266,273.673,361.261,275.706,353.874z"/>
	</g>
	<g>
		<path style="fill:#FFFFFF;stroke:#231F20;stroke-width:2;stroke-linecap:round;stroke-linejoin:round;stroke-miterlimit:10;" d="
			M444.154,390.392c-3.544-5.484-6.784-11.197-8.885-17.113c-3.78-10.646-5.834-21.748-4.885-33.072h-22.912h-22.912
			c1.009,12.028-1.066,24.319-5.637,35.47c-2.291,5.59-5.234,10.925-8.831,15.783c-3.643,4.921-7.424,9.075-9.975,14.755
			c-2.991,6.658-4.531,13.93-4.531,21.228c0,28.656,23.23,51.885,51.885,51.885c28.655,0,51.885-23.23,51.885-51.885
			c0-4.889-0.684-9.774-2.046-14.47c-1.329-4.581-3.064-7.818-5.76-11.711C449.121,397.751,446.567,394.125,444.154,390.392z"/>
		<path style="fill:#FFFFFF;stroke:#231F20;stroke-width:2;stroke-linecap:round;stroke-linejoin:round;stroke-miterlimit:10;" d="
			M438.197,340.207h-61.449c-2.974,0-5.385-2.411-5.385-5.385l0,0c0-2.974,2.411-5.385,5.135-5.385h61.449
			c3.224,0,5.635,2.411,5.635,5.385l0,0C443.583,337.796,441.172,340.207,438.197,340.207z"/>
		<g>
			<path style="fill:#FFFFFF;stroke:#231F20;stroke-width:2;stroke-linecap:round;stroke-linejoin:round;stroke-miterlimit:10;" d="
				M420.058,392.118c-2.379-1.055-4.447-2.771-5.6-5.103c-1.521-3.076-1.777-6.517-2.02-9.895
				c-1.16-16.132-2.319-32.264-3.479-48.396c-0.364-5.064,2.293-10.564,2.352-15.641c9.558,2.36,20.25-0.576,27.262-7.488
				c7.012-6.911,9.366-18.113,7.144-27.705c-8.694-3.372-19.057-2.034-26.609,3.436s-11.093,14.918-10.6,24.23
				c-1.18,1.511-4.593,0.734-4.693-1.181c-0.092-1.757,0.457-3.383,0.04-5.092c-2.528-10.381-9.911-19.47-19.552-24.073
				c-9.642-4.603-20.787-5.057-30.449-0.496c-0.644,11.391,4.309,22.966,12.993,30.365c8.684,7.399,20.899,10.451,32.043,8.006
				c3.463,5.326,4.874,11.994,4.914,18.346c0.118,18.533,0.236,37.066,0.354,55.599c0.057,8.931-10.958,13.855-18.254,19.007
				c-7.296,5.152-14.863,10.994-17.77,19.439c-0.451,1.311-0.782,2.748-0.165,4.059c0.329,0.699,0.955,1.262,1.717,1.388
				c1.369,0.227,2.283-0.898,3.017-1.916c3.661-5.072,7.321-10.144,10.982-15.215c-0.411,5.038-0.711,9.821-0.503,13.427
				c0.185,3.21,4.72,3.806,5.672,0.735c1.076-3.475,1.495-7.248,2.166-10.853c1.158-6.214,3.835-13.009,10.191-14.816
				c1.392-0.396,2.943-0.135,3.985,0.868c2.296,2.21,0.335,5.707-1.473,8.15c-7.749,10.473-12.909,22.846-14.898,35.721
				c-0.383,2.478-0.639,5.099,0.751,7.347c0.566,0.915,1.427,1.65,2.457,1.962c3.218,0.974,5.453-2.207,5.609-5.111
				c0.134-2.475-0.766-4.874-1.162-7.321c-1.33-8.21,3.015-16.173,7.362-23.264c4.347-7.091,9.028-14.726,8.451-23.023
				c2.773-0.914,5.032,0.975,6.241,3.633c1.209,2.658,1.095,5.699,1.079,8.619c-0.056,10.3,1.405,20.607,4.322,30.486
				c0.729,2.467,1.614,5.022,3.892,6.503c0.909,0.591,2.01,0.892,3.082,0.732c3.325-0.496,3.993-4.257,2.971-6.954
				c-0.861-2.272-2.581-4.095-3.838-6.174c-3.724-6.16-3.19-14.229-2.845-20.869c0.142-2.732,0.043-5.471-0.329-8.181
				C426.196,400.509,424.615,394.139,420.058,392.118z"/>
			<g>
				<path style="fill:#FFFFFF;stroke:#231F20;stroke-linecap:round;stroke-linejoin:round;stroke-miterlimit:10;" d="
					M359.566,277.822c16.467,3.89,31.311,14.257,40.632,28.378"/>
				<path style="fill:#FFFFFF;stroke:#231F20;stroke-linecap:round;stroke-linejoin:round;stroke-miterlimit:10;" d="
					M361.362,292.548c6.216-3.678,13.617-5.319,20.805-4.612"/>
				<path style="fill:#FFFFFF;stroke:#231F20;stroke-linecap:round;stroke-linejoin:round;stroke-miterlimit:10;" d="
					M368.255,301.169c7.473-3.742,16.09-5.162,24.369-4.015"/>
				<path style="fill:#FFFFFF;stroke:#231F20;stroke-linecap:round;stroke-linejoin:round;stroke-miterlimit:10;" d="
					M379.174,275.608c-0.534,3.247-0.568,6.576-0.101,9.834"/>
				<path style="fill:#FFFFFF;stroke:#231F20;stroke-linecap:round;stroke-linejoin:round;stroke-miterlimit:10;" d="
					M390.895,284.031c-0.212,3.694-0.361,6.286-0.573,9.98"/>
			</g>
			<g>
				<path style="fill:#FFFFFF;stroke:#231F20;stroke-linecap:round;stroke-linejoin:round;stroke-miterlimit:10;" d="
					M442.145,282.258c-11.931,5.728-22.394,14.484-30.134,25.219"/>
				<path style="fill:#FFFFFF;stroke:#231F20;stroke-linecap:round;stroke-linejoin:round;stroke-miterlimit:10;" d="
					M418.188,285.751c-0.888,4.575-0.865,9.325,0.068,13.891"/>
				<path style="fill:#FFFFFF;stroke:#231F20;stroke-linecap:round;stroke-linejoin:round;stroke-miterlimit:10;" d="
					M430.84,279.192c-1.41,3.406-2.139,7.093-2.131,10.78"/>
				<path style="fill:#FFFFFF;stroke:#231F20;stroke-linecap:round;stroke-linejoin:round;stroke-miterlimit:10;" d="
					M435.551,300.413c-5.303-1.527-10.908-2-16.392-1.381"/>
				<path style="fill:#FFFFFF;stroke:#231F20;stroke-linecap:round;stroke-linejoin:round;stroke-miterlimit:10;" d="
					M441.014,291.355c-4.594-1.069-8.56-1.138-13.189-0.232"/>
			</g>
		</g>
		<path style="fill:none;stroke:#231F20;stroke-width:2;stroke-linecap:round;stroke-linejoin:round;stroke-miterlimit:10;" d="
			M452.285,428.036c0,24.75-20.06,44.81-44.81,44.81s-44.81-20.06-44.81-44.81c0-6.31,1.33-12.59,3.91-18.34
			c2.2-4.9,5.47-8.49,8.61-12.74c3.11-4.2,5.65-8.8,7.63-13.63c2.12-5.17,3.62-10.62,4.41-16.17c0.82,0.47,1.62,0.96,2.4,1.45
			c6.96,4.36,14.27,9.3,22.48,9.09c4.66-0.11,9.09-1.91,13.67-2.76c1.17-0.22,2.4-0.36,3.63-0.38c0.59,2.25,1.28,4.49,2.07,6.7
			c1.82,5.11,4.62,10.04,7.68,14.78c2.08,3.22,4.29,6.35,6.39,9.39c2.33,3.36,3.82,6.15,4.97,10.11
			C451.695,419.596,452.285,423.816,452.285,428.036z"/>
		<g>
			<path style="fill:#FFFFFF;stroke:#231F20;stroke-linecap:round;stroke-linejoin:round;stroke-miterlimit:10;" d="
				M444.672,428.766c-0.271,1.375-0.679,2.773-1.577,3.849c-0.897,1.076-2.39,1.759-3.73,1.35c-1.497-0.457-2.347-2.101-2.475-3.66
				c-0.128-1.56,0.291-3.105,0.492-4.657c0.535-4.138-0.546-8.464-2.965-11.863c-0.88-1.237-1.933-2.362-2.633-3.71
				c-1.389-2.677-0.206-6.839,3.517-6.058c2.443,0.513,4.725,4.316,5.922,6.273C444.566,415.75,445.917,422.463,444.672,428.766z"/>
			<path style="fill:#FFFFFF;stroke:#231F20;stroke-linecap:round;stroke-linejoin:round;stroke-miterlimit:10;" d="
				M437.058,451.182c5.836,0.015,5.985-8.225,0.383-8.978C431.127,441.355,430.905,451.167,437.058,451.182z"/>
		</g>
	</g>
	<g>
		<g>
			<path style="fill:#FFFFFF;stroke:#231F20;stroke-width:2;stroke-linecap:round;stroke-linejoin:round;stroke-miterlimit:10;" d="
				M235.824,44.705c5.016-1.231,10.715,1.65,12.699,6.418c1.176,2.828,1.112,6.05,0.387,9.026c-0.813,3.337-2.525,6.575-5.326,8.562
				c-3.743,2.655-9.216,2.55-12.854-0.247c-4.417-3.396-4.377-8.136-3.258-12.964C228.611,50.584,230.251,46.073,235.824,44.705z"/>
			<path style="fill:#FFFFFF;stroke:#231F20;stroke-width:2;stroke-linecap:round;stroke-linejoin:round;stroke-miterlimit:10;" d="
				M197.13,47.354c1.041-4.848,3.932-9.41,8.254-11.84c4.322-2.431,10.085-2.42,14.046,0.562c2.929,2.205,4.623,5.712,5.512,9.269
				c1.287,5.149,1.048,10.779-1.295,15.541c-2.343,4.762-6.932,8.513-12.189,9.239c-4.759,0.657-11.211-1.66-13.212-6.396
				C196.333,59.2,196.127,52.026,197.13,47.354z"/>
			<path style="fill:#FFFFFF;stroke:#231F20;stroke-width:2;stroke-linecap:round;stroke-linejoin:round;stroke-miterlimit:10;" d="
				M176.237,55.565c-0.73-5.054,1.126-10.737,5.51-13.355c4.409-2.633,10.343-1.535,14.42,1.588
				c4.077,3.123,6.57,7.894,8.257,12.745c1.324,3.808,2.227,7.992,1.029,11.842c-1.44,4.629-6.09,8.056-10.937,8.063
				c-5.518,0.008-7.943-3.636-11.094-7.383C180.046,65.049,177.015,60.948,176.237,55.565z"/>
			<path style="fill:#FFFFFF;stroke:#231F20;stroke-width:2;stroke-linecap:round;stroke-linejoin:round;stroke-miterlimit:10;" d="
				M162.924,68.939c-2.884-4.535-3.271-11.142,0.602-14.868c3.066-2.95,7.988-3.285,11.96-1.762c3.972,1.523,7.148,4.593,9.897,7.84
				c2.689,3.176,5.145,6.729,5.982,10.806c1.705,8.309-4.913,15.182-13.184,11.638c-2.507-1.074-4.081-3.258-6.084-5.01
				C168.867,74.758,165.288,72.656,162.924,68.939z"/>
			<path style="fill:#FFFFFF;stroke:#231F20;stroke-width:2;stroke-linecap:round;stroke-linejoin:round;stroke-miterlimit:10;" d="
				M213.283,64.306c0.102-4.85,1.439-9.834,4.636-13.482c3.197-3.648,8.478-5.671,13.093-4.177c4.71,1.524,7.792,6.332,8.529,11.228
				c0.737,4.896-0.482,9.872-2.058,14.565c-1.24,3.692-2.759,7.391-5.372,10.278c-2.614,2.887-6.523,4.852-10.371,4.252
				c-4.017-0.626-6.367-3.861-6.689-7.668C214.63,74.321,213.176,69.404,213.283,64.306z"/>
			<path style="fill:#FFFFFF;stroke:#231F20;stroke-width:2;stroke-linecap:round;stroke-linejoin:round;stroke-miterlimit:10;" d="
				M234.121,62.762c2.375-2.734,5.389-5.1,8.937-5.829c3.547-0.729,7.657,0.527,9.512,3.637c2.117,3.549,0.811,8.085-0.719,11.924
				c-4.018,10.085-9.257,19.683-15.566,28.518c-2.154,3.017-5.043,6.246-8.745,6.056c-6.815-0.349-7.43-9.263-5.612-14.133
				c2.382-6.379,3.358-13.146,5.882-19.484C229.349,69.589,231.386,65.91,234.121,62.762z"/>
			<path style="fill:#FFFFFF;stroke:#231F20;stroke-width:2;stroke-linecap:round;stroke-linejoin:round;stroke-miterlimit:10;" d="
				M196.165,64.445c-0.441-3.913-0.432-8.251,2.046-11.312c2.52-3.113,7.183-4.003,10.95-2.641c3.767,1.362,6.628,4.643,8.171,8.339
				c1.544,3.696,1.899,7.786,1.806,11.79c-0.07,3.022-0.4,6.094-1.598,8.869c-2.339,5.416-9.833,9.285-15.067,5.088
				c-2.079-1.667-2.848-4.758-3.597-7.175C197.569,73.182,196.659,68.837,196.165,64.445z"/>
			<path style="fill:#FFFFFF;stroke:#231F20;stroke-width:2;stroke-linecap:round;stroke-linejoin:round;stroke-miterlimit:10;" d="
				M167.559,87.912c-3.313-2.892-6.778-6.61-6.309-10.983c0.363-3.384,3.234-6.181,6.53-7.03c3.296-0.849,6.866,0.026,9.78,1.783
				c2.915,1.756,5.252,4.326,7.316,7.032c3.961,5.193,7.077,11.031,9.187,17.212c0.993,2.909,1.423,6.547-2.143,7.74
				c-2.824,0.945-5.226-1.432-7.449-2.898C178.553,96.868,172.897,92.573,167.559,87.912z"/>
			<path style="fill:#FFFFFF;stroke:#231F20;stroke-width:2;stroke-linecap:round;stroke-linejoin:round;stroke-miterlimit:10;" d="
				M185.606,82.084c-0.992-4.856-1.211-10.521,2.209-14.108c3.556-3.73,10.034-3.482,14.094-0.308
				c4.06,3.174,5.918,8.533,6.04,13.685c0.121,5.152-1.27,10.206-2.649,15.171c-0.664,2.39-1.381,4.877-3.063,6.7
				C193.193,113.027,186.679,87.339,185.606,82.084z"/>
			<path style="fill:#FFFFFF;stroke:#231F20;stroke-width:2;stroke-linecap:round;stroke-linejoin:round;stroke-miterlimit:10;" d="
				M208.676,83.011c1.257-5.167,3.438-10.414,7.68-13.622c4.242-3.208,10.967-3.567,14.508,0.402
				c3.05,3.418,2.83,8.612,1.882,13.094c-1.149,5.426-3.106,10.68-5.786,15.536c-1.952,3.536-4.486,7.029-8.206,8.602
				c-3.943,1.667-10.065,0.095-11.303-4.39C205.828,96.755,207.268,88.797,208.676,83.011z"/>
			<path style="fill:#FFFFFF;stroke:#231F20;stroke-width:2;stroke-linecap:round;stroke-linejoin:round;stroke-miterlimit:10;" d="
				M240.686,76.885c1.702-2.158,3.811-4.063,6.348-5.118c2.537-1.056,5.54-1.18,7.988,0.068c3.659,1.865,5.327,6.422,4.87,10.503
				c-0.457,4.081-2.635,7.759-5.03,11.095c-2.586,3.601-5.486,6.975-8.657,10.073c-2.038,1.991-4.352,3.948-7.166,4.394
				c-8.168,1.296-5.96-7.886-5.257-12.611C234.753,88.765,236.533,82.15,240.686,76.885z"/>
		</g>
		<g>
			<path style="fill:#FFFFFF;stroke:#231F20;stroke-width:2;stroke-linecap:round;stroke-linejoin:round;stroke-miterlimit:10;" d="
				M247.344,105.043c6.279,6.835,11.912,12.888,14.795,21.71c2.884,8.822,2.325,19.214-3.403,26.518
				c-3.365,4.291-8.243,7.216-13.406,8.969c-5.163,1.753-10.632,2.409-16.071,2.791c-10.502,0.738-21.072,0.493-31.528-0.729
				c-5.298-0.619-10.617-1.503-15.571-3.479c-4.954-1.977-9.562-5.129-12.531-9.56c-4.79-7.148-4.675-16.71-1.8-24.821
				c2.875-8.111,8.169-15.101,13.384-21.946L247.344,105.043z"/>
			<path style="fill:#FFFFFF;stroke:#231F20;stroke-width:2;stroke-linecap:round;stroke-linejoin:round;stroke-miterlimit:10;" d="
				M175.341,97.507c26.326,2.478,52.652,2.478,78.979,0c-1.328,2.806-3.256,5.412-6.638,7.535
				c-23.03,2.137-45.171,2.184-66.132-0.547C178.037,103.244,176.202,100.74,175.341,97.507z"/>
			<g>
				<path style="fill:#231F20;" d="M199.998,139.891c-0.465,1.736-2.25,2.766-3.986,2.3c-1.736-0.465-2.766-2.25-2.3-3.986
					c0.465-1.736,2.25-2.766,3.986-2.3C199.434,136.371,200.464,138.155,199.998,139.891z"/>
				<path style="fill:#231F20;" d="M234.262,139.783c-0.465,1.736-2.25,2.766-3.986,2.3c-1.736-0.465-2.766-2.25-2.3-3.986
					c0.465-1.736,2.25-2.766,3.986-2.3C233.697,136.263,234.727,138.048,234.262,139.783z"/>
				<path style="fill:none;stroke:#231F20;stroke-width:2;stroke-linecap:round;stroke-linejoin:round;stroke-miterlimit:10;" d="
					M201.335,146.172c3.181,3.493,7.801,5.632,12.523,5.798c4.721,0.166,9.481-1.644,12.899-4.905"/>
			</g>
			<path style="fill:#FFFFFF;stroke:#231F20;stroke-linecap:round;stroke-linejoin:round;stroke-miterlimit:10;" d="M171.172,120.21
				c2.363-2.84,6.729-3.784,10.054-2.174c4.138,2.004,6.482,7.296,11.035,7.932c6.236,0.871,10.874-7.737,17.092-6.75
				c3.005,0.477,5.133,3.071,7.185,5.317c2.053,2.246,4.827,4.469,7.808,3.862c4.619-0.941,6.2-7.907,10.881-8.467
				c2.316-0.277,4.455,1.206,6.187,2.769c1.732,1.562,3.442,3.35,5.706,3.912c2.154,0.535,4.467-0.171,6.316-1.399
				c1.849-1.228,3.318-2.937,4.762-4.624"/>
		</g>
	</g>
</g>
</svg>
