<?xml version="1.0" encoding="utf-8"?>
<!-- Generator: Adobe Illustrator 27.5.0, SVG Export Plug-In . SVG Version: 6.00 Build 0)  -->
<svg version="1.1" xmlns="http://www.w3.org/2000/svg" xmlns:xlink="http://www.w3.org/1999/xlink" x="0px" y="0px"
	 viewBox="0 0 500 500" style="enable-background:new 0 0 500 500;" xml:space="preserve">
<g id="BACKGROUND">
	<rect style="fill:#FFFFFF;" width="500" height="500"/>
</g>
<g id="OBJECTS">
	<g>
		<g>
			<g>
				
					<path style="fill:#FFFFFF;stroke:#231F20;stroke-width:2;stroke-linecap:round;stroke-linejoin:round;stroke-miterlimit:10;" d="
					M246.051,15.281C145.606,15.281,64.17,70.08,64.17,137.669h24.206c0-58.593,70.599-106.099,157.675-106.099
					c87.088,0,157.675,47.506,157.675,106.099h24.206C427.933,70.08,346.508,15.281,246.051,15.281z"/>
				
					<path style="fill:#FFFFFF;stroke:#231F20;stroke-width:2;stroke-linecap:round;stroke-linejoin:round;stroke-miterlimit:10;" d="
					M246.051,31.57c-87.077,0-157.675,47.506-157.675,106.099h22.901c0-50.087,60.34-90.689,134.774-90.689
					s134.774,40.602,134.774,90.689h22.901C403.727,79.075,333.139,31.57,246.051,31.57z"/>
				
					<path style="fill:#FFFFFF;stroke:#231F20;stroke-width:2;stroke-linecap:round;stroke-linejoin:round;stroke-miterlimit:10;" d="
					M246.051,46.98c-74.434,0-134.774,40.602-134.774,90.689h26.828c0-40.113,48.333-72.637,107.946-72.637
					c59.625,0,107.958,32.523,107.958,72.637h26.816C380.825,87.582,320.486,46.98,246.051,46.98z"/>
			</g>
			<path style="fill:#FFFFFF;stroke:#231F20;stroke-width:2;stroke-linecap:round;stroke-linejoin:round;stroke-miterlimit:10;" d="
				M114.231,124.804c-3.328-7.55-11.888-12.426-20.08-11.437c-8.192,0.989-15.346,7.762-16.781,15.888
				c-6.461-5.732-18.72-6.867-25.414-1.409c-6.694,5.458-8.622,15.942-4.309,23.424c-5.452,1.061-10.337,6.296-11.409,11.746
				c-1.071,5.45,0.808,11.24,4.323,15.54c3.789,4.636,9.458,7.689,15.414,8.302c5.956,0.612,12.128-1.224,16.78-4.993
				c2.652,9.296,12.686,14.846,22.341,14.373c9.655-0.473,18.475-8.208,20.205-17.719c6.004,3.51,11.411,5.701,18.356,6.058
				c6.945,0.356,14.349-2.27,18.303-7.991s3.283-14.633-2.384-18.664c6.871,0.11,11.672-5.078,13.647-11.66
				c1.975-6.582-0.9-14.308-6.697-17.998c-5.797-3.69-14.014-3.025-19.141,1.55C133.244,123.745,120.518,121.003,114.231,124.804z"
				/>
			<path style="fill:#FFFFFF;stroke:#231F20;stroke-width:2;stroke-linecap:round;stroke-linejoin:round;stroke-miterlimit:10;" d="
				M379.918,124.804c3.328-7.55,11.888-12.426,20.08-11.437c8.192,0.989,15.345,7.762,16.781,15.888
				c6.461-5.732,18.72-6.867,25.414-1.409c6.694,5.458,8.622,15.942,4.309,23.424c5.452,1.061,10.337,6.296,11.409,11.746
				c1.071,5.45-0.808,11.24-4.323,15.54c-3.789,4.636-9.458,7.689-15.414,8.302c-5.956,0.612-12.128-1.224-16.78-4.993
				c-2.652,9.296-12.686,14.846-22.341,14.373c-9.655-0.473-18.475-8.208-20.205-17.719c-6.004,3.51-11.411,5.701-18.356,6.058
				c-6.945,0.356-14.349-2.27-18.303-7.991s-3.284-14.633,2.384-18.664c-6.871,0.11-11.672-5.078-13.647-11.66
				c-1.974-6.582,0.901-14.308,6.697-17.998c5.797-3.69,14.014-3.025,19.141,1.55C360.904,123.745,373.631,121.003,379.918,124.804z
				"/>
		</g>
		<path style="fill:#FFFFFF;stroke:#231F20;stroke-width:2;stroke-linecap:round;stroke-linejoin:round;stroke-miterlimit:10;" d="
			M57.266,53.637C64.219,39.054,76.7,26.778,91.34,19.944c-14.518-1.074-28.984,5.514-36.771,17.814
			c-9.767-7.429-23.307-9.597-34.905-5.59C34.945,32.871,50.305,40.016,57.266,53.637z"/>
		<path style="fill:#FFFFFF;stroke:#231F20;stroke-width:2;stroke-linecap:round;stroke-linejoin:round;stroke-miterlimit:10;" d="
			M400.669,24.457c15.146,0.717,29.577,10.121,36.349,23.688c13.265-8.158,29.495-9.036,43.624-2.489
			c-15.856,0.076-34.824,5.331-44.404,17.966C427.42,45.941,416.777,35.9,400.669,24.457z"/>
	</g>
	<g>
		<g>
			
				<path style="fill:#FFFFFF;stroke:#231F20;stroke-width:1.7209;stroke-linecap:round;stroke-linejoin:round;stroke-miterlimit:10;" d="
				M470.637,413.656c-2.382-1.813-5.754-1.348-8.618-0.268c-2.864,1.08-5.623,2.71-8.613,3.058
				c-4.453,0.519-8.707-1.965-11.606-5.431c-1.518-1.815-2.69-3.924-3.731-6.091c-0.445-0.927-0.876-1.864-1.322-2.789
				c-0.169-0.35-0.286-0.748-0.432-1.125l3.327-11.143c1.044,0.571,1.935,1.432,2.735,2.337c1.027,1.162,2.065,2.294,3.06,3.493
				c2.002,2.413,3.939,4.92,6.264,6.994c1.32,1.177,2.767,2.203,4.359,2.936c4.668,2.148,10.475,1.499,14.859-1.662
				c4.384-3.161,7.2-8.729,7.206-14.247c0.003-2.778-0.711-5.6-2.412-7.617c-1.701-2.017-4.489-3.076-7.006-2.227
				c-3.36,1.134-5.237,5.029-8.189,7.141c-5.018,3.589-11.514,1.409-15.647-2.089c-0.985-0.834-1.941-1.757-3.042-2.387
				l3.641-12.194c0.017,0.006,0.034,0.009,0.052,0.015c1.641,0.588,3.029,1.646,4.608,2.358c1.696,0.764,3.459,1.389,5.288,1.746
				c4.058,0.793,8.63,0.122,11.911-2.782c3.08-2.727,4.629-7.299,3.843-11.342c-0.786-4.043-3.87-7.364-7.65-8.24
				c-2.501-0.579-5.56,0.091-6.999,2.457c-2.058,3.383,0.042,8.497-2.637,11.355c-0.595,0.635-1.338,1.065-2.15,1.243
				c-0.996,0.218-1.998-0.061-2.968-0.268c-0.709-0.151-1.409-0.338-2.104-0.543l3.245-10.87c1.11-3.198,3.676-5.529,6.343-7.452
				c2.667-1.923,5.53-3.751,7.367-6.572c1.837-2.821,2.264-7.015,0.001-9.235c-2.276-2.233-5.771-1.356-8.151,0.482
				c-2.989,2.31-3.957,6.873-5.248,10.392c-1.274,3.474-2.452,6.983-3.568,10.514c-1.204,3.804-2.335,7.634-3.444,11.472
				c-1.428-0.665-2.506-1.819-2.711-3.584c-0.45-3.891,4.282-6.749,4.644-10.692c0.253-2.758-1.805-5.118-4.16-6.142
				c-3.558-1.548-8.013-0.716-11.052,2.063s-4.517,7.375-3.667,11.4c0.905,4.287,4.179,7.548,7.911,9.328
				c2.425,1.156,5.071,1.8,7.722,2.195c-1.151,4.032-2.299,8.065-3.488,12.082c-1.096,0.013-2.216,0.187-3.314,0.311
				c-1.43,0.162-2.946,0.214-4.283-0.33c-1.104-0.449-2.261-0.859-3.307-1.453c-2.195-1.248-4.077-3.202-4.902-5.76
				c-1.114-3.455-0.302-7.702-2.326-10.614c-1.516-2.181-4.386-2.99-6.954-2.383c-2.568,0.607-4.822,2.449-6.474,4.682
				c-3.282,4.437-4.335,10.587-2.696,15.737c1.639,5.15,5.917,9.13,10.947,10.184c5.94,1.245,12.317-1.196,18.196-2.438
				c0.944-0.199,1.895-0.407,2.842-0.478c-1.191,3.831-2.381,7.663-3.572,11.494c-1.164,0.672-2.284,1.439-3.48,2.043
				c-1.847,0.931-3.76,1.723-5.74,2.2c-4.393,1.058-9.289,0.52-12.558-2.549c-2.194-2.06-3.44-5.012-5.098-7.585
				c-1.657-2.573-4.09-4.955-7.083-4.917c-4.031,0.051-7.076,4.486-7.931,8.731c-1.356,6.728,1.18,13.979,6.251,17.869
				s12.416,4.221,18.103,0.816c3.469-2.077,6.211-5.319,9.416-7.851c1.362-1.076,2.843-1.999,4.417-2.638
				c0.606-0.246,1.304-0.512,2.013-0.683c-1.976,6.358-3.952,12.715-5.927,19.073c-2.436,7.838-4.871,15.676-7.307,23.514
				l4.361,0.237l12.532-41.975c0.772,0.73,1.405,1.725,1.903,2.593c0.786,1.369,1.368,2.876,1.788,4.43
				c1.067,3.943,1.339,8.18,2.889,11.914c2.54,6.122,8.638,10.231,15.028,10.126c6.39-0.105,12.746-4.42,15.663-10.632
				C473.649,421.474,473.844,416.098,470.637,413.656z"/>
			<g>
				<g>
					
						<path style="fill:#FFFFFF;stroke:#231F20;stroke-width:2;stroke-linecap:round;stroke-linejoin:round;stroke-miterlimit:10;" d="
						M421.221,414.678c0,13.555-11.074,21.559-11.074,21.559s-11.074-8.004-11.074-21.559c0-13.555,11.074-27.528,11.074-27.528
						S421.221,401.123,421.221,414.678z"/>
					
						<line style="fill:none;stroke:#231F20;stroke-width:2;stroke-linecap:round;stroke-linejoin:round;stroke-miterlimit:10;" x1="410.147" y1="403.842" x2="410.147" y2="436.237"/>
				</g>
				<g>
					
						<path style="fill:#FFFFFF;stroke:#231F20;stroke-width:2;stroke-linecap:round;stroke-linejoin:round;stroke-miterlimit:10;" d="
						M434.383,436.317c-12.078,6.154-24.237-0.08-24.237-0.08s2.105-13.501,14.182-19.654c12.078-6.154,29.555-2.629,29.555-2.629
						S446.461,430.164,434.383,436.317z"/>
					
						<line style="fill:none;stroke:#231F20;stroke-width:2;stroke-linecap:round;stroke-linejoin:round;stroke-miterlimit:10;" x1="439.011" y1="421.531" x2="410.147" y2="436.237"/>
				</g>
				<g>
					
						<path style="fill:#FFFFFF;stroke:#231F20;stroke-width:2;stroke-linecap:round;stroke-linejoin:round;stroke-miterlimit:10;" d="
						M421.078,457.868c-10.966-7.968-10.931-21.632-10.931-21.632s12.985-4.254,23.951,3.714
						c10.966,7.968,15.76,25.141,15.76,25.141S432.043,465.837,421.078,457.868z"/>
					
						<line style="fill:none;stroke:#231F20;stroke-width:2;stroke-linecap:round;stroke-linejoin:round;stroke-miterlimit:10;" x1="436.353" y1="455.279" x2="410.147" y2="436.237"/>
				</g>
				<g>
					
						<path style="fill:#FFFFFF;stroke:#231F20;stroke-width:2;stroke-linecap:round;stroke-linejoin:round;stroke-miterlimit:10;" d="
						M395.835,455.797c2.122-13.388,14.312-19.56,14.312-19.56s9.685,9.639,7.563,23.027c-2.122,13.388-15.246,25.455-15.246,25.455
						S393.713,469.185,395.835,455.797z"/>
					
						<line style="fill:none;stroke:#231F20;stroke-width:2;stroke-linecap:round;stroke-linejoin:round;stroke-miterlimit:10;" x1="405.076" y1="468.232" x2="410.147" y2="436.237"/>
				</g>
				<g>
					
						<path style="fill:#FFFFFF;stroke:#231F20;stroke-width:2;stroke-linecap:round;stroke-linejoin:round;stroke-miterlimit:10;" d="
						M386.221,432.364c12.892-4.187,23.925,3.873,23.925,3.873s-4.192,13.005-17.084,17.192
						c-12.892,4.187-29.602-2.029-29.602-2.029S373.329,436.551,386.221,432.364z"/>
					
						<line style="fill:none;stroke:#231F20;stroke-width:2;stroke-linecap:round;stroke-linejoin:round;stroke-miterlimit:10;" x1="379.336" y1="446.244" x2="410.147" y2="436.237"/>
				</g>
				<g>
					
						<path style="fill:#FFFFFF;stroke:#231F20;stroke-width:2;stroke-linecap:round;stroke-linejoin:round;stroke-miterlimit:10;" d="
						M402.736,413.161c9.583,9.586,7.411,23.076,7.411,23.076s-13.491,2.169-23.074-7.417c-9.583-9.586-11.631-27.297-11.631-27.297
						S393.152,403.574,402.736,413.161z"/>
					
						<line style="fill:none;stroke:#231F20;stroke-width:2;stroke-linecap:round;stroke-linejoin:round;stroke-miterlimit:10;" x1="387.243" y1="413.327" x2="410.147" y2="436.237"/>
				</g>
			</g>
		</g>
		<g>
			
				<path style="fill:none;stroke:#231F20;stroke-width:1.8699;stroke-linecap:round;stroke-linejoin:round;stroke-miterlimit:10;" d="
				M430.566,246.594c-1.579,1.749-3.196,3.465-4.745,5.242l-4.611,5.36c-3.055,3.589-6.206,7.098-9.125,10.801
				c-2.959,3.669-5.956,7.308-8.885,11.001l-8.573,11.246c-11.232,15.143-21.766,30.804-31.485,46.961l-7.121,12.217l-6.739,12.432
				c-0.556,1.039-1.131,2.068-1.671,3.115l-1.579,3.163l-3.158,6.326c-1.035,2.117-2.144,4.199-3.119,6.345l-2.946,6.428
				c-7.839,17.144-14.791,34.705-20.561,52.659"/>
			<g>
				
					<path style="fill:#FFFFFF;stroke:#231F20;stroke-width:1.8699;stroke-linecap:round;stroke-linejoin:round;stroke-miterlimit:10;" d="
					M456.446,244.56c-5.068,5.138-12.087,6.444-18.037,6.449c-5.936,0.001-10.697-1.286-10.697-1.286s-1.803-4.529-2.278-10.516
					c-0.477-5.972,0.356-13.507,5.724-18.958c2.171-2.248,4.884-4,7.811-5.347c2.928-1.347,6.165-2.191,9.243-2.801
					c6.184-1.197,11.937-1.224,14.88-1.119l3.634,0.129l-0.9,0.969c-0.902,0.972-1.457,1.503-1.457,1.503s-0.601-0.478-1.59-1.362
					l2.415,0.97c0.001,2.983-0.174,8.757-1.356,14.768c-0.579,3.02-1.469,6.048-2.634,8.935
					C460.04,239.782,458.5,242.433,456.446,244.56z"/>
				
					<path style="fill:none;stroke:#231F20;stroke-width:1.8699;stroke-linecap:round;stroke-linejoin:round;stroke-miterlimit:10;" d="
					M452.085,223.885c-4.169,4.203-8.242,8.502-12.367,12.748c-4.062,4.307-8,8.73-12.006,13.089"/>
			</g>
			<g>
				
					<path style="fill:#FFFFFF;stroke:#231F20;stroke-width:1.8699;stroke-linecap:round;stroke-linejoin:round;stroke-miterlimit:10;" d="
					M433.644,288.237c-7.22-1.266-12.47-6.409-15.827-11.343c-3.367-4.923-4.857-9.617-4.857-9.617s0.706-1.003,1.994-2.47
					c1.329-1.432,3.26-3.313,5.641-5.108c2.382-1.794,5.215-3.499,8.346-4.567c3.137-1.064,6.665-1.407,10.273-0.635
					c7.242,1.567,13.675,7.464,18.372,12.888c4.689,5.433,7.639,10.395,7.639,10.395s-1.092,0.796-2.957,1.941
					c-1.895,1.123-4.44,2.695-7.476,4.162c-3.032,1.47-6.525,2.859-10.179,3.719C440.963,288.463,437.268,288.885,433.644,288.237z"
					/>
				
					<path style="fill:none;stroke:#231F20;stroke-width:1.8699;stroke-linecap:round;stroke-linejoin:round;stroke-miterlimit:10;" d="
					M447.644,273.766c-5.693-1.205-11.437-2.354-17.231-3.446c-5.79-1.089-11.659-2.147-17.453-3.043"/>
			</g>
			<g>
				
					<path style="fill:#FFFFFF;stroke:#231F20;stroke-width:1.8699;stroke-linecap:round;stroke-linejoin:round;stroke-miterlimit:10;" d="
					M409.971,319.348c-7.319-0.783-12.916-5.533-16.599-10.206c-3.692-4.66-5.486-9.223-5.486-9.223s0.644-1.043,1.842-2.585
					c1.213-1.53,2.913-3.611,5.188-5.548c4.555-3.872,10.923-7.51,18.206-6.467c7.357,1.097,14.173,6.548,19.222,11.635
					c5.041,5.096,8.311,9.831,8.311,9.831s-0.262,0.211-0.734,0.592c-0.47,0.381-1.157,0.923-2.027,1.567
					c-1.741,1.289-4.217,2.987-7.16,4.634c-1.471,0.824-3.06,1.635-4.732,2.375c-1.656,0.751-3.348,1.464-5.117,2.029
					C417.36,319.121,413.628,319.742,409.971,319.348z"/>
				
					<path style="fill:none;stroke:#231F20;stroke-width:1.8699;stroke-linecap:round;stroke-linejoin:round;stroke-miterlimit:10;" d="
					M422.924,304.004c-5.779-0.832-11.618-1.61-17.483-2.31c-5.804-0.656-11.656-1.248-17.555-1.775"/>
			</g>
			<g>
				
					<path style="fill:#FFFFFF;stroke:#231F20;stroke-width:1.8699;stroke-linecap:round;stroke-linejoin:round;stroke-miterlimit:10;" d="
					M388.661,351.985c-7.289-0.211-13.241-4.53-17.291-8.931c-2.028-2.195-3.587-4.399-4.637-6.059
					c-1.043-1.655-1.559-2.75-1.559-2.75s2.319-4.327,6.483-8.585c1.041-1.063,2.195-2.121,3.456-3.101
					c1.266-0.977,2.696-1.839,4.189-2.575c3-1.463,6.378-2.336,10.056-2.071c7.355,0.531,14.539,5.486,19.954,10.206
					c5.407,4.731,9.043,9.231,9.043,9.231s-0.952,0.937-2.612,2.326c-1.649,1.396-4.056,3.218-6.846,5.073
					c-2.752,1.876-5.972,3.74-9.432,5.107C396.016,351.229,392.27,352.075,388.661,351.985z"/>
				
					<path style="fill:none;stroke:#231F20;stroke-width:1.8699;stroke-linecap:round;stroke-linejoin:round;stroke-miterlimit:10;" d="
					M400.412,335.779c-2.94-0.228-5.852-0.414-8.749-0.568l-8.762-0.428c-5.864-0.25-11.773-0.43-17.727-0.537"/>
			</g>
			<g>
				
					<path style="fill:#FFFFFF;stroke:#231F20;stroke-width:1.8699;stroke-linecap:round;stroke-linejoin:round;stroke-miterlimit:10;" d="
					M370.038,386.078c-7.327,0.333-13.594-3.493-17.957-7.548c-4.371-4.039-6.851-8.282-6.851-8.282s0.472-1.132,1.412-2.843
					c0.475-0.853,1.043-1.863,1.771-2.925c0.739-1.056,1.596-2.185,2.569-3.316c3.914-4.516,9.554-9.119,17.044-9.073
					c7.415,0.001,14.95,4.404,20.697,8.694c5.74,4.302,9.688,8.496,9.688,8.496s-0.892,0.992-2.463,2.481
					c-1.541,1.504-3.679,3.547-6.319,5.595c-2.615,2.059-5.776,4.106-9.074,5.744C377.27,384.744,373.7,385.915,370.038,386.078z"/>
				
					<path style="fill:none;stroke:#231F20;stroke-width:1.8699;stroke-linecap:round;stroke-linejoin:round;stroke-miterlimit:10;" d="
					M380.45,369.062c-11.614,0.063-23.506,0.377-35.22,1.185"/>
			</g>
			<g>
				
					<path style="fill:#FFFFFF;stroke:#231F20;stroke-width:1.8699;stroke-linecap:round;stroke-linejoin:round;stroke-miterlimit:10;" d="
					M379.996,261.101c2.648,7.088,8.963,10.875,14.528,13.001c2.792,1.063,5.379,1.684,7.311,2.077
					c1.927,0.389,3.153,0.51,3.153,0.51s3.334-3.588,6.029-8.931c0.674-1.337,1.31-2.784,1.847-4.316
					c0.555-1.516,1.038-3.095,1.345-4.745c0.62-3.293,0.598-6.824-0.569-10.379c-2.333-7.111-8.823-12.946-14.805-16.92
					c-5.974-3.983-11.436-6.105-11.436-6.105s-0.801,1.344-1.929,3.583c-1.121,2.244-2.593,5.355-3.856,8.945
					C379.178,245.096,377.383,254.047,379.996,261.101z"/>
				
					<path style="fill:none;stroke:#231F20;stroke-width:1.8699;stroke-linecap:round;stroke-linejoin:round;stroke-miterlimit:10;" d="
					M392.959,243.026c1.818,5.649,3.845,11.383,5.841,16.986c2.014,5.619,4.078,11.179,6.189,16.678"/>
			</g>
			<g>
				
					<path style="fill:#FFFFFF;stroke:#231F20;stroke-width:1.8699;stroke-linecap:round;stroke-linejoin:round;stroke-miterlimit:10;" d="
					M354.574,296.131c3.111,6.864,9.692,10.187,15.412,11.918c5.729,1.717,10.612,1.82,10.612,1.82s0.749-0.969,1.774-2.634
					c1.021-1.668,2.426-3.955,3.597-6.707c1.183-2.744,2.181-5.919,2.526-9.283c0.322-3.38,0.145-6.836-1.269-10.307
					c-2.786-6.913-9.66-12.291-15.909-15.847c-6.242-3.566-11.855-5.313-11.855-5.313s-0.721,1.392-1.714,3.695
					c-1.025,2.276-2.161,5.595-3.174,9.277c-0.997,3.696-1.801,7.813-1.973,11.85C352.478,288.676,353.026,292.7,354.574,296.131z"
					/>
				
					<path style="fill:none;stroke:#231F20;stroke-width:1.8699;stroke-linecap:round;stroke-linejoin:round;stroke-miterlimit:10;" d="
					M366.229,277.113c2.282,5.577,4.613,11.09,6.991,16.537l3.602,8.122c1.236,2.708,2.507,5.415,3.777,8.097"/>
			</g>
			<g>
				
					<path style="fill:#FFFFFF;stroke:#231F20;stroke-width:1.8699;stroke-linecap:round;stroke-linejoin:round;stroke-miterlimit:10;" d="
					M331.676,332.995c3.575,6.592,10.401,9.407,16.256,10.71c5.863,1.288,10.77,1.039,10.77,1.039s2.745-4.052,4.598-9.754
					c1.992-5.621,3.174-12.891-0.168-19.632c-3.297-6.708-10.5-11.549-17.013-14.655c-3.248-1.552-6.306-2.668-8.555-3.392
					c-2.24-0.718-3.663-1.041-3.663-1.041s-2.405,5.861-3.93,13.359c-0.8,3.722-1.221,7.956-1.047,12.037
					C329.096,325.749,329.891,329.696,331.676,332.995z"/>
				
					<path style="fill:none;stroke:#231F20;stroke-width:1.8699;stroke-linecap:round;stroke-linejoin:round;stroke-miterlimit:10;" d="
					M341.952,313.132l4.013,8.019c1.339,2.649,2.71,5.293,4.136,7.947c2.822,5.289,5.69,10.504,8.6,15.645"/>
			</g>
			<g>
				
					<path style="fill:#FFFFFF;stroke:#231F20;stroke-width:1.8699;stroke-linecap:round;stroke-linejoin:round;stroke-miterlimit:10;" d="
					M311.706,371.669c4.146,6.326,11.167,8.569,17.081,9.383c5.922,0.797,10.749,0.138,10.749,0.138s0.138-0.273,0.385-0.764
					c0.234-0.498,0.571-1.215,0.987-2.1c0.804-1.78,1.789-4.281,2.526-7.181c0.753-2.892,1.191-6.217,1.079-9.569
					c-0.1-3.344-0.877-6.784-2.778-10.002c-3.801-6.439-11.395-10.743-18.101-13.321c-6.7-2.591-12.51-3.46-12.51-3.46
					s-0.505,1.5-1.14,3.951c-0.633,2.452-1.431,5.832-1.815,9.694C307.328,356.131,307.474,365.301,311.706,371.669z"/>
				
					<path style="fill:none;stroke:#231F20;stroke-width:1.8699;stroke-linecap:round;stroke-linejoin:round;stroke-miterlimit:10;" d="
					M320.343,350.957c6.237,10.401,12.548,20.437,19.193,30.232"/>
			</g>
		</g>
		<g>
			
				<path style="fill:none;stroke:#231F20;stroke-width:1.7209;stroke-linecap:round;stroke-linejoin:round;stroke-miterlimit:10;" d="
				M68.278,238.6c52.719,54.91,93.782,120.947,119.673,192.528"/>
			<g>
				
					<path style="fill:#FFFFFF;stroke:#231F20;stroke-width:1.7209;stroke-linecap:round;stroke-linejoin:round;stroke-miterlimit:10;" d="
					M66.758,212.018c2.844,2.634,4.465,5.948,5.419,9.259c0.946,3.322,1.169,6.701,1.037,9.72c-0.136,3.024-0.6,5.666-1.092,7.611
					c-0.476,1.93-0.906,3.095-0.906,3.095s-1.181,0.352-3.104,0.718c-1.906,0.351-4.624,0.787-7.623,0.89
					c-3.004,0.107-6.311-0.093-9.495-0.958c-3.195-0.855-6.207-2.432-8.872-4.892c-2.63-2.496-4.513-5.812-5.892-9.413
					c-0.345-0.9-0.657-1.818-0.942-2.744c-0.296-0.914-0.576-1.823-0.823-2.741c-0.498-1.831-0.894-3.664-1.21-5.426
					c-1.263-7.048-1.273-12.981-1.273-12.981s5.768-0.794,13.085-0.21c1.829,0.145,3.753,0.376,5.704,0.723
					c0.974,0.176,1.961,0.372,2.933,0.616c0.96,0.256,1.918,0.545,2.864,0.871C60.352,207.458,63.949,209.348,66.758,212.018z"/>
				
					<path style="fill:none;stroke:#231F20;stroke-width:1.7209;stroke-linecap:round;stroke-linejoin:round;stroke-miterlimit:10;" d="
					M45.746,216.481l6.499,6.173c2.145,2.079,4.382,4.065,6.446,6.227l6.295,6.381c2.085,2.14,4.235,4.217,6.231,6.442"/>
			</g>
			<g>
				
					<path style="fill:#FFFFFF;stroke:#231F20;stroke-width:1.7209;stroke-linecap:round;stroke-linejoin:round;stroke-miterlimit:10;" d="
					M111.408,241.887c-2.291,7.235-8.508,11.339-14.051,13.752c-5.554,2.4-10.453,3.089-10.453,3.089s-0.872-0.878-2.105-2.419
					c-1.25-1.526-2.786-3.781-4.344-6.349c-3.068-5.176-5.55-12.237-3.598-19.506c1.935-7.249,8.171-13.473,14.015-17.793
					c5.834-4.329,11.27-6.756,11.27-6.756s0.927,1.288,2.152,3.542c1.241,2.238,2.851,5.375,4.317,8.957
					C111.63,225.505,113.678,234.675,111.408,241.887z"/>
				
					<path style="fill:none;stroke:#231F20;stroke-width:1.7209;stroke-linecap:round;stroke-linejoin:round;stroke-miterlimit:10;" d="
					M97.42,224.17c-1.602,5.856-3.264,11.65-4.984,17.38c-1.757,5.763-3.634,11.518-5.533,17.178"/>
			</g>
			<g>
				
					<path style="fill:#FFFFFF;stroke:#231F20;stroke-width:1.7209;stroke-linecap:round;stroke-linejoin:round;stroke-miterlimit:10;" d="
					M138.694,276.173c-2.896,7.084-9.393,10.695-15.075,12.66c-5.665,1.932-10.653,2.285-10.653,2.285s-3.251-3.724-5.804-9.203
					c-0.645-1.366-1.224-2.862-1.743-4.408c-0.533-1.534-0.964-3.152-1.231-4.824c-0.534-3.345-0.415-6.914,0.857-10.477
					c2.542-7.129,9.237-12.858,15.379-16.708c6.133-3.86,11.708-5.842,11.708-5.842s3.127,5.574,5.569,12.889
					C139.98,259.995,141.52,269.145,138.694,276.173z"/>
				
					<path style="fill:none;stroke:#231F20;stroke-width:1.7209;stroke-linecap:round;stroke-linejoin:round;stroke-miterlimit:10;" d="
					M126.076,257.467c-1.983,5.668-4.159,11.377-6.355,16.995c-2.199,5.62-4.451,11.172-6.754,16.656"/>
			</g>
			<g>
				
					<path style="fill:#FFFFFF;stroke:#231F20;stroke-width:1.7209;stroke-linecap:round;stroke-linejoin:round;stroke-miterlimit:10;" d="
					M163.208,312.486c-3.385,6.821-10.145,9.935-15.977,11.475c-5.841,1.526-10.769,1.455-10.769,1.455s-0.72-1.005-1.693-2.723
					c-0.989-1.708-2.313-4.074-3.401-6.89c-1.097-2.811-1.992-6.051-2.223-9.46c-0.226-3.411,0.078-6.902,1.616-10.358
					c3.038-6.889,10.148-12.094,16.573-15.474c6.417-3.391,12.144-4.958,12.144-4.958s0.686,1.436,1.617,3.804
					c0.966,2.344,2.018,5.728,2.911,9.497c0.883,3.776,1.556,7.969,1.593,12.057C165.6,305.025,164.887,309.08,163.208,312.486z"/>
				
					<path style="fill:none;stroke:#231F20;stroke-width:1.7209;stroke-linecap:round;stroke-linejoin:round;stroke-miterlimit:10;" d="
					M152.093,292.848c-2.492,5.558-5.033,11.046-7.621,16.464l-3.918,8.072c-1.323,2.677-2.718,5.374-4.092,8.032"/>
			</g>
			<g>
				
					<path style="fill:#FFFFFF;stroke:#231F20;stroke-width:1.7209;stroke-linecap:round;stroke-linejoin:round;stroke-miterlimit:10;" d="
					M184.97,350.52c-3.852,6.524-10.838,9.119-16.789,10.221c-5.959,1.087-10.896,0.657-10.896,0.657s-2.604-4.198-4.28-10.01
					c-1.82-5.735-2.726-13.126,0.889-19.806c3.544-6.635,11.004-11.273,17.682-14.166c3.333-1.448,6.459-2.462,8.755-3.109
					c2.3-0.651,3.747-0.925,3.747-0.925s2.209,6.006,3.47,13.634c0.308,1.91,0.585,3.904,0.702,5.958
					c0.098,2.064,0.088,4.159-0.077,6.215C187.844,343.302,186.894,347.255,184.97,350.52z"/>
				
					<path style="fill:none;stroke:#231F20;stroke-width:1.7209;stroke-linecap:round;stroke-linejoin:round;stroke-miterlimit:10;" d="
					M175.334,330.112c-2.891,5.345-5.755,10.578-8.79,15.807c-3.045,5.235-6.132,10.395-9.259,15.48"/>
			</g>
			<g>
				
					<path style="fill:#FFFFFF;stroke:#231F20;stroke-width:1.7209;stroke-linecap:round;stroke-linejoin:round;stroke-miterlimit:10;" d="
					M73.909,289.56c7.276-1.299,12.58-6.486,15.966-11.469c3.397-4.97,4.896-9.713,4.896-9.713s-0.714-1.012-2.015-2.492
					c-1.346-1.443-3.303-3.334-5.713-5.137c-2.41-1.802-5.276-3.512-8.437-4.574c-3.188-1.04-6.738-1.367-10.374-0.555
					c-7.29,1.643-13.728,7.657-18.433,13.166c-4.695,5.519-7.652,10.536-7.652,10.536s1.096,0.783,2.969,1.907
					c1.902,1.098,4.475,2.638,7.515,4.091c3.045,1.449,6.556,2.816,10.234,3.653C66.539,289.811,70.256,290.227,73.909,289.56z"/>
				
					<path style="fill:none;stroke:#231F20;stroke-width:1.7209;stroke-linecap:round;stroke-linejoin:round;stroke-miterlimit:10;" d="
					M59.82,275.087c5.725-1.258,11.507-2.452,17.347-3.582c5.836-1.128,11.76-2.216,17.605-3.126"/>
			</g>
			<g>
				
					<path style="fill:#FFFFFF;stroke:#231F20;stroke-width:1.7209;stroke-linecap:round;stroke-linejoin:round;stroke-miterlimit:10;" d="
					M97.654,320.891c7.391-0.769,13.064-5.535,16.802-10.234c3.747-4.686,5.574-9.284,5.574-9.284s-0.647-1.055-1.852-2.616
					c-1.216-1.552-2.939-3.648-5.211-5.625c-4.591-3.919-11.026-7.594-18.36-6.554c-7.429,1.112-14.308,6.618-19.41,11.746
					c-5.093,5.139-8.405,9.903-8.405,9.903s0.259,0.213,0.729,0.599c0.471,0.382,1.16,0.926,2.034,1.572
					c1.748,1.293,4.234,2.997,7.193,4.65c1.479,0.827,3.077,1.641,4.76,2.385c1.642,0.774,3.362,1.483,5.139,2.059
					C90.199,320.644,93.961,321.279,97.654,320.891z"/>
				
					<path style="fill:none;stroke:#231F20;stroke-width:1.7209;stroke-linecap:round;stroke-linejoin:round;stroke-miterlimit:10;" d="
					M84.663,305.413c5.825-0.834,11.738-1.627,17.638-2.304c5.859-0.647,11.77-1.226,17.729-1.735"/>
			</g>
			<g>
				
					<path style="fill:#FFFFFF;stroke:#231F20;stroke-width:1.7209;stroke-linecap:round;stroke-linejoin:round;stroke-miterlimit:10;" d="
					M118.972,353.924c7.362-0.169,13.394-4.499,17.507-8.92c2.06-2.205,3.646-4.422,4.715-6.092
					c1.066-1.667,1.591-2.769,1.591-2.769s-2.318-4.38-6.501-8.701c-4.102-4.37-10.43-8.398-17.827-7.913
					c-7.429,0.503-14.705,5.471-20.195,10.209c-5.482,4.749-9.176,9.27-9.176,9.27s0.955,0.948,2.623,2.354
					c1.652,1.417,4.084,3.251,6.873,5.147C104.089,350.334,111.613,354.088,118.972,353.924z"/>
				
					<path style="fill:none;stroke:#231F20;stroke-width:1.7209;stroke-linecap:round;stroke-linejoin:round;stroke-miterlimit:10;" d="
					M107.206,337.497c11.756-0.791,23.533-1.189,35.579-1.354"/>
			</g>
			<g>
				
					<path style="fill:#FFFFFF;stroke:#231F20;stroke-width:1.7209;stroke-linecap:round;stroke-linejoin:round;stroke-miterlimit:10;" d="
					M137.656,388.501c7.394,0.371,13.73-3.482,18.149-7.568c4.426-4.07,6.948-8.348,6.948-8.348s-0.471-1.145-1.411-2.878
					c-0.907-1.749-2.427-4.012-4.371-6.311c-3.917-4.584-9.605-9.252-17.164-9.248c-7.485-0.039-15.117,4.364-20.941,8.667
					c-5.817,4.314-9.824,8.531-9.824,8.531s0.896,1.008,2.475,2.523c1.568,1.522,3.707,3.613,6.369,5.7
					c2.644,2.097,5.79,4.204,9.164,5.858C130.36,387.114,133.961,388.319,137.656,388.501z"/>
				
					<path style="fill:none;stroke:#231F20;stroke-width:1.7209;stroke-linecap:round;stroke-linejoin:round;stroke-miterlimit:10;" d="
					M127.188,371.229c5.871,0.062,11.784,0.199,17.738,0.411c2.967,0.112,5.987,0.219,8.937,0.388l8.89,0.557"/>
			</g>
		</g>
		<g>
			<g>
				<g>
					
						<path style="fill:#FFFFFF;stroke:#231F20;stroke-width:1.7209;stroke-linecap:round;stroke-linejoin:round;stroke-miterlimit:10;" d="
						M85.062,425.838c-12.407-8.061-21.459-21.126-24.648-35.574c-3.189-14.448-0.478-30.109,7.383-42.644
						c12.531,7.907,22.252,20.65,25.126,35.186C95.797,397.341,93.641,413.757,85.062,425.838z"/>
					
						<path style="fill:#FFFFFF;stroke:#231F20;stroke-width:1.7209;stroke-linecap:round;stroke-linejoin:round;stroke-miterlimit:10;" d="
						M74.43,372.585c8.812,13.698,11.807,31.872,10.632,53.253"/>
				</g>
				<g>
					
						<path style="fill:#FFFFFF;stroke:#231F20;stroke-width:1.7209;stroke-linecap:round;stroke-linejoin:round;stroke-miterlimit:10;" d="
						M74.43,431.739c-16.769-3.569-31.993-13.917-41.484-28.195c-9.491-14.278-13.137-32.321-9.935-49.165
						c17.484,2.139,33.357,11.949,43.013,26.681C75.68,395.792,79.444,414.853,74.43,431.739z"/>
					
						<path style="fill:#FFFFFF;stroke:#231F20;stroke-width:1.7209;stroke-linecap:round;stroke-linejoin:round;stroke-miterlimit:10;" d="
						M37.164,372.505c16.04,17.969,28.821,37.537,37.266,59.234"/>
				</g>
			</g>
			<g>
				<g>
					<g>
						
							<path style="fill:#FFFFFF;stroke:#231F20;stroke-width:2;stroke-linecap:round;stroke-linejoin:round;stroke-miterlimit:10;" d="
							M124.005,416.621c0-57.347-62.567-11.889-2.269,1.649c-60.298-13.538-36.399,60.014,0.867,2.668
							c-37.266,57.347,40.071,57.347,2.805,0c37.266,57.347,61.165-16.205,0.867-2.668
							C186.572,404.732,124.005,359.275,124.005,416.621z"/>
					</g>
					
						<circle style="fill:#FFFFFF;stroke:#231F20;stroke-width:2;stroke-linecap:round;stroke-linejoin:round;stroke-miterlimit:10;" cx="124.046" cy="421.345" r="11.837"/>
				</g>
				<g>
					<g>
						
							<path style="fill:#FFFFFF;stroke:#231F20;stroke-width:2;stroke-linecap:round;stroke-linejoin:round;stroke-miterlimit:10;" d="
							M71.321,433.268c0-57.347-62.567-11.889-2.269,1.649c-60.298-13.538-36.399,60.014,0.867,2.668
							c-37.266,57.347,40.071,57.347,2.805,0c37.266,57.347,61.165-16.205,0.867-2.668
							C133.888,421.379,71.321,375.921,71.321,433.268z"/>
					</g>
					
						<circle style="fill:#FFFFFF;stroke:#231F20;stroke-width:2;stroke-linecap:round;stroke-linejoin:round;stroke-miterlimit:10;" cx="71.362" cy="437.992" r="11.837"/>
				</g>
			</g>
		</g>
	</g>
	<g>
		<g>
			<g>
				<g>
					
						<path style="fill:#FFFFFF;stroke:#231F20;stroke-width:2;stroke-linecap:round;stroke-linejoin:round;stroke-miterlimit:10;" d="
						M374.671,456.912c-3.85,4.84-8.69,8.93-14.12,11.8c-16.5,8.71-36.9,7.55-54.24,0.66c1.7-12.46,3.68-25.39,6.37-38.18
						c3.44-16.38,8.05-32.54,14.77-47.18c11.5,2.69,23.08,5.75,33.31,11.65c10.22,5.9,19.07,15.04,22.25,26.41
						C386.381,434.122,382.551,447.072,374.671,456.912z"/>
					<path style="fill:none;stroke:#231F20;stroke-linecap:round;stroke-linejoin:round;stroke-miterlimit:10;" d="M374.671,456.912
						c-3.85,4.84-8.69,8.93-14.12,11.8c-16.5,8.71-36.9,7.55-54.24,0.66c1.7-12.46,3.68-25.39,6.37-38.18
						c6.87-2.01,14.36-2.26,21.57-1.83c8,0.47,16.14,1.75,23.19,5.54C365.881,439.442,372.141,447.692,374.671,456.912z"/>
				</g>
				<g>
					
						<path style="fill:#FFFFFF;stroke:#231F20;stroke-width:2;stroke-linecap:round;stroke-linejoin:round;stroke-miterlimit:10;" d="
						M187.801,400.322c-16.6,0.01-33.4-0.01-49.63-3.3c-1.96-0.4-3.92-0.84-5.86-1.34c-18.02-4.62-35.44-14.44-45.39-30.17
						c-9.95-15.72-10.76-37.9,1.16-52.19c5.62,1.03,9.42,5.72,11.43,11.07c0.65-4.84,4.37-8.84,8.5-11.46
						c18.6,4.46,34.02,16.61,49.32,28.09c3.59,2.69,7.35,5.33,11.25,7.74c12.7,7.86,26.85,13.38,41.3,10.99
						C211.351,375.132,200.911,392.132,187.801,400.322z"/>
					<path style="fill:none;stroke:#231F20;stroke-linecap:round;stroke-linejoin:round;stroke-miterlimit:10;" d="M157.771,383.212
						c-5.27,6.19-12.08,10.82-19.6,13.81c-1.96-0.4-3.92-0.84-5.86-1.34c-18.02-4.62-35.44-14.44-45.39-30.17
						c-9.95-15.72-10.76-37.9,1.16-52.19c5.62,1.03,9.42,5.72,11.43,11.07c0.65-4.84,4.37-8.84,8.5-11.46
						c18.6,4.46,34.02,16.61,49.32,28.09c3.59,2.69,7.35,5.33,11.25,7.74C169.521,361.152,165.301,374.382,157.771,383.212z"/>
				</g>
			</g>
			<g>
				<g>
					
						<path style="fill:#FFFFFF;stroke:#231F20;stroke-width:2;stroke-linecap:round;stroke-linejoin:round;stroke-miterlimit:10;" d="
						M191.333,475.357c-5.431,0.268-10.862,0.535-16.293,0.803c-3.231,0.159-6.631,0.29-9.529-0.953
						c-4.394-1.885-6.434-6.667-5.547-10.836c0.887-4.169,4.184-7.708,8.08-10.284c6.049-3.999,13.784-6.049,21.388-5.667
						c4.587,3.075,8.432,8.299,8.993,13.293C198.986,466.707,195.148,471.576,191.333,475.357z"/>
					<path style="fill:none;stroke:#231F20;stroke-linecap:round;stroke-linejoin:round;stroke-miterlimit:10;" d="M171.626,462.819
						c-1.997,1.48-3.402,3.738-3.847,6.183c-0.445,2.446,0.074,5.053,1.421,7.142"/>
				</g>
				<g>
					<g>
						
							<path style="fill:#FFFFFF;stroke:#231F20;stroke-width:2;stroke-linecap:round;stroke-linejoin:round;stroke-miterlimit:10;" d="
							M268.239,406.099c-0.602,6.817-1.203,13.634-1.805,20.452c-1.073,12.164-2.248,24.689-7.89,35.519
							c-5.642,10.83-16.932,19.666-29.098,18.615c-7.333-0.634-13.756-5.79-12.955-13.107c-6.832,7.293-16.938,11.395-26.92,10.927
							c-2.737-0.128-5.587-0.636-7.749-2.32c-2.478-1.929-3.691-5.35-2.982-8.409c0.709-3.06,3.025-7.314,6.099-7.956
							c2.239-12.944-6.162-24.966-11.826-36.819c-14.041-29.386-11.409-66.083,6.682-93.164
							c34.522,5.652,68.484,6.041,103.328,2.934c10.748,10.476,21.286,19.761,34.335,27.178c-1.407,12.018-6.9,23.589-15.694,31.9
							C292.969,400.16,280.318,405.373,268.239,406.099z"/>
						<g>
							<path style="fill:none;stroke:#231F20;stroke-linecap:round;stroke-linejoin:round;stroke-miterlimit:10;" d="
								M237.848,465.837c-1.732,1.638-2.817,3.943-2.978,6.321c-0.161,2.379,0.605,4.808,2.101,6.664"/>
							<path style="fill:none;stroke:#231F20;stroke-linecap:round;stroke-linejoin:round;stroke-miterlimit:10;" d="
								M230.496,464.978c-2.197,1.659-3.817,4.067-4.524,6.727c-0.708,2.66-0.499,5.555,0.584,8.086"/>
						</g>
						<g>
							<path style="fill:none;stroke:#231F20;stroke-linecap:round;stroke-linejoin:round;stroke-miterlimit:10;" d="
								M197.192,464.14c-3.36,3.57-4.294,9.217-2.264,13.679"/>
							<path style="fill:none;stroke:#231F20;stroke-linecap:round;stroke-linejoin:round;stroke-miterlimit:10;" d="
								M190.836,463.158c-2.533,1.116-4.625,3.201-5.748,5.731c-1.123,2.53-1.268,5.48-0.396,8.107"/>
						</g>
						
							<path style="fill:#FFFFFF;stroke:#231F20;stroke-width:2;stroke-linecap:round;stroke-linejoin:round;stroke-miterlimit:10;" d="
							M197.72,406.271c8.528,6.955,15.043,16.351,18.565,26.777c3.522,10.426,4.041,21.848,1.478,32.55"/>
					</g>
					<g>
						
							<path style="fill:#FFFFFF;stroke:#231F20;stroke-width:2;stroke-linecap:round;stroke-linejoin:round;stroke-miterlimit:10;" d="
							M291.329,342.699c15.897,7.714,32.127,15.661,44.546,28.23c11.455,11.594,19.182,27.047,20.534,43.289
							c1.352,16.242-3.933,33.132-15.074,45.027c-11.141,11.896-28.154,18.322-44.253,15.775c1.546,1.531,0.618,4.604-1.117,5.918
							c-1.734,1.314-4.041,1.52-6.214,1.641c-16.106,0.898-32.32-0.158-48.173-3.138c-1.926-2.757-2.186-7.107-0.111-9.754
							c2.075-2.647,5.191-4.241,8.268-5.601c7.445-3.293,15.277-5.71,23.283-7.185c-16.43-11.272-25.572-32.387-20.133-51.555
							c5.439-19.168,23.933-33.859,43.835-34.821"/>
						<g>
							<path style="fill:none;stroke:#231F20;stroke-linecap:round;stroke-linejoin:round;stroke-miterlimit:10;" d="
								M264.526,469.667c-1.914,1.202-3.379,3.1-4.058,5.256c-0.679,2.156-0.564,4.551,0.316,6.633"/>
							<path style="fill:none;stroke:#231F20;stroke-linecap:round;stroke-linejoin:round;stroke-miterlimit:10;" d="
								M255.26,468.149c-2.321,0.954-4.268,2.789-5.357,5.05c-1.089,2.261-1.311,4.927-0.611,7.337"/>
						</g>
					</g>
				</g>
			</g>
		</g>
		<g>
			<g>
				
					<path style="fill:#FFFFFF;stroke:#231F20;stroke-width:2;stroke-linecap:round;stroke-linejoin:round;stroke-miterlimit:10;" d="
					M290.52,326.884c1.226,4.598-1.294,9.557-5.029,12.506c-3.734,2.949-8.471,4.274-13.109,5.337
					c-25.398,5.821-52.126,5.756-77.495-0.189c-5.692-1.334-11.548-3.086-15.822-7.074c-4.274-3.988-6.425-10.825-3.432-15.847
					C213.401,330.962,252.289,334.108,290.52,326.884z"/>
				<g>
					
						<circle style="fill:#FFFFFF;stroke:#231F20;stroke-width:2;stroke-linecap:round;stroke-linejoin:round;stroke-miterlimit:10;" cx="225.846" cy="350.946" r="22.307"/>
					<path style="fill:#FFFFFF;stroke:#231F20;stroke-linecap:round;stroke-linejoin:round;stroke-miterlimit:10;" d="
						M225.846,368.377c0,2.28-1.848,4.128-4.128,4.128c-2.28,0-4.128-1.848-4.128-4.128c0-2.28,1.848-4.128,4.128-4.128
						C223.997,364.249,225.846,366.097,225.846,368.377z"/>
					
						<path style="fill:#FFFFFF;stroke:#231F20;stroke-width:2;stroke-linecap:round;stroke-linejoin:round;stroke-miterlimit:10;" d="
						M249.148,357.595c-17.68,8.864-33.304,8.882-46.86,0c-4.041-4.537-4.041-9.074,0-13.612c13.738,9.25,29.344,9.318,46.86,0
						C253.091,348.52,253.091,353.057,249.148,357.595z"/>
				</g>
			</g>
			<g>
				<g>
					
						<path style="fill:#FFFFFF;stroke:#231F20;stroke-width:2;stroke-linecap:round;stroke-linejoin:round;stroke-miterlimit:10;" d="
						M327.881,277.102c-2.45-4.15-4.98-8.22-7.62-12.22c-12.17-18.52-26.31-35.4-42.41-50.49c-6.11-5.74-12.49-11.21-19.16-16.41
						c16.754-24.22,43.108-41.537,71.896-47.62c5.265-1.113,10.493,2.2,11.659,7.454
						C351.021,197.354,345.296,240.61,327.881,277.102z"/>
					
						<path style="fill:#FFFFFF;stroke:#231F20;stroke-width:2;stroke-linecap:round;stroke-linejoin:round;stroke-miterlimit:10;" d="
						M320.261,264.882c-12.17-18.52-26.31-35.4-42.41-50.49c13.27-19.71,31.22-36.26,52.01-47.76
						C337.241,198.732,333.201,234.212,320.261,264.882z"/>
				</g>
				<g>
					
						<path style="fill:#FFFFFF;stroke:#231F20;stroke-width:2;stroke-linecap:round;stroke-linejoin:round;stroke-miterlimit:10;" d="
						M222.451,193.172c-6.67,7.56-13.4,15.17-20.16,22.79c-11.71,13.22-23.49,26.5-35.12,39.66c-2.35,2.65-4.68,5.29-7,7.92
						c-13.76-16.92-21.27-38.81-20.79-60.62c0.433-19.674,8.881-39.61,21.183-55.285c2.388-3.042,6.573-4,10.083-2.378
						C192.345,155.287,210.795,172.291,222.451,193.172z"/>
					
						<path style="fill:#FFFFFF;stroke:#231F20;stroke-width:2;stroke-linecap:round;stroke-linejoin:round;stroke-miterlimit:10;" d="
						M202.291,215.962c-11.71,13.22-23.49,26.5-35.12,39.66c-12.64-11.95-17.31-30.77-16.93-48.44c0.41-19.23,8.63-37.2,15.74-55.08
						C183.271,169.812,195.891,192.052,202.291,215.962z"/>
				</g>
				<g>
					
						<path style="fill:#FFFFFF;stroke:#231F20;stroke-width:2;stroke-linecap:round;stroke-linejoin:round;stroke-miterlimit:10;" d="
						M155.93,255.978c0.3-0.026,7.128-21.382,8.164-23.553c3.391-7.106,7.642-13.814,12.832-19.747
						c10.711-12.242,24.994-20.211,40.495-24.74c36.646-10.704,75.702,7.823,93.963,40.285c3.282,5.834,6.012,11.969,8.335,18.243
						c1.248,3.372,2.376,6.788,3.407,10.232c0.597,1.993,1.281,8.988,2.762,10.201c2.878,2.357,7.238,2.927,11.394,3.489
						c3.594,0.487,5.993,3.994,5.095,7.509c-1.195,4.68-3.951,9.676-6.878,13.469l3.248,0.868c3.299,0.881,4.728,4.732,2.852,7.585
						c-21.261,32.337-61.156,38.529-97.015,38.228c-21.75-0.182-45.752-1.528-65.788-10.483c-16.154-7.22-30.3-18.779-40.099-33.558
						c-4.259-6.424-7.675-13.4-10.14-20.702c-0.953-2.824,1.401-5.644,4.364-5.322c2.945,0.321,5.546,0.28,7.717-0.208
						c-2.183-3.828-3.215-8.289-3.378-13.226c-0.1-3.01,3.268-4.838,5.756-3.141C147.383,254.386,151.704,256.283,155.93,255.978z"
						/>
					<path style="fill:none;stroke:#231F20;stroke-linecap:round;stroke-linejoin:round;stroke-miterlimit:10;" d="M228.463,185.595
						c-3.736,19.216-3.481,39.589,0.823,58.69c3.73,16.555,10.425,34.023,26.382,42.202c22.801,11.686,55.506-0.815,71.661-18.618"
						/>
					<g>
						<g>
							<path style="fill:#231F20;" d="M203.229,268.423c-0.673,3.369-2.996,5.745-5.189,5.307c-2.193-0.438-3.426-3.524-2.753-6.893
								s2.996-5.745,5.189-5.307C202.669,261.969,203.902,265.055,203.229,268.423z"/>
							<path style="fill:#231F20;" d="M263.371,271.474c-0.673,3.369-2.996,5.745-5.189,5.307c-2.193-0.438-3.426-3.524-2.753-6.893
								s2.996-5.745,5.189-5.307C262.811,265.019,264.043,268.105,263.371,271.474z"/>
						</g>
						<g>
							
								<path style="fill:none;stroke:#231F20;stroke-width:2;stroke-linecap:round;stroke-linejoin:round;stroke-miterlimit:10;" d="
								M223.975,283.514c-0.941,0.074-1.945,0.216-2.648,0.846c-1.115,1.001-0.997,2.822-0.347,4.172
								c1.187,2.468,3.903,4.116,6.64,4.028c2.737-0.088,5.342-1.906,6.368-4.445C236.425,282.085,227.395,283.244,223.975,283.514z
								"/>
							
								<path style="fill:none;stroke:#231F20;stroke-width:2;stroke-linecap:round;stroke-linejoin:round;stroke-miterlimit:10;" d="
								M203.413,290.483c1.045,5.095,5.547,9.289,10.704,9.97c5.157,0.681,10.593-2.2,12.925-6.85
								c2.956,4.554,7.178,7.072,12.604,7.248c5.426,0.176,10.869-2.446,14.114-6.799"/>
						</g>
					</g>
					<g>
						<path style="fill:none;stroke:#231F20;stroke-linecap:round;stroke-linejoin:round;stroke-miterlimit:10;" d="
							M204.511,227.252c3.217,3.471,4.56,8.583,3.466,13.187"/>
						<path style="fill:none;stroke:#231F20;stroke-linecap:round;stroke-linejoin:round;stroke-miterlimit:10;" d="M197.66,228.29
							c2.766,3.572,4.524,7.916,5.022,12.406"/>
						<path style="fill:#FFFFFF;stroke:#231F20;stroke-linecap:round;stroke-linejoin:round;stroke-miterlimit:10;" d="
							M258.503,229.962c4.453,3.703,6.706,9.875,5.685,15.576"/>
						<path style="fill:#FFFFFF;stroke:#231F20;stroke-linecap:round;stroke-linejoin:round;stroke-miterlimit:10;" d="
							M250.805,231.646c3.035,2.947,4.679,7.269,4.369,11.488"/>
					</g>
				</g>
			</g>
		</g>
	</g>
</g>
</svg>
